<?xml version="1.0" standalone="no"?><!DOCTYPE svg PUBLIC "-//W3C//DTD SVG 1.1//EN" "http://www.w3.org/Graphics/SVG/1.1/DTD/svg11.dtd"><svg t="1575976092006" class="icon" viewBox="0 0 1159 1024" version="1.1" xmlns="http://www.w3.org/2000/svg" p-id="4557" xmlns:xlink="http://www.w3.org/1999/xlink" width="226.3671875" height="200"><defs><style type="text/css"></style></defs><path d="M775.052075 754.745962c18.335396 5.216604 46.85283 7.921509 66.733887 8.810264v-135.399849h-110.572679c11.534491 59.005585 29.831245 103.327396 43.858113 126.589585h-0.019321z m-47.297207-140.848302h114.031094V517.603019h-121.913962c0.656906 35.453585 3.59366 68.723925 7.882868 96.275321z m-7.902189-110.514717h121.913963V407.088302h-113.992453c-4.540377 27.551396-7.477132 60.763774-7.92151 96.256z m-191.603924 6.955472c0-173.790189 142.973585-314.88966 316.956981-314.88966 2.936755 0 5.64166 0.25117 8.597736 0.25117V0.386415L452.685283 62.98566v894.763472l400.615849 62.599245 0.483019-195.274868c-2.956075 0-5.660981 0.212528-8.597736 0.212529-174.002717 0-316.956981-141.099472-316.956981-314.908981v-0.019321z m172.843471 7.283925h-111.345509c1.391094 33.424906 9.544453 67.352151 22.412075 96.27532h96.816302a692.99683 692.99683 0 0 1-7.882868-96.27532z m29.599397-125.913359h111.094339V256.966038c-20.151547 0.908075-48.611019 4.038038-67.178264 9.254641-14.258717 23.725887-32.323623 66.695245-43.916075 125.488302z m-21.929057 15.36h-97.048151a267.824302 267.824302 0 0 0-22.141585 96.294642h111.287547c0.656906-35.260377 3.612981-68.704604 7.92151-96.256v-0.038642z m-87.310491 221.087396c28.478792 51.779623 74.423547 97.434566 130.531019 118.899925-13.331321-23.957736-29.17434-65.767849-39.588226-118.899925h-90.942793z m129.854793-354.226717c-55.643774 21.677887-101.376 65.999698-130.067321 117.779321h90.691623c10.433208-52.707019 26.005736-93.377208 39.375698-117.817962v0.038641z" fill="#1296db" p-id="4558" data-spm-anchor-id="a313x.7781069.0.i16" class="selected"></path><path d="M149.078943 801.521509v-49.499773h51.18068v49.499773h-51.2z m-99.328 0v-49.499773H97.956226v49.499773H49.750943z m216.527699-77.766037h-0.019321l29.386868-29.386868 78.712754 78.635471-75.544151 86.344453-29.406188-21.677886 25.09766-36.149133h-45.229887v-49.499773h45.30717l-28.304905-28.266264zM150.218868 501.315623v47.471094H100.236075v-47.471094h49.982793zM0 548.825358v-47.471094h48.437132v47.471094H0z m244.793962-110.785207v-0.038642l29.17434-28.672 116.040453 115.982491-116.040453 115.96317-29.17434-29.17434 66.502038-63.275472h-113.354868v-47.471094h113.354868l-66.502038-63.314113z m-94.575094-186.735094v50.407849h-99.115472v-50.42717h99.115472z m119.885283 76.645434h0.038641l30.797283-26.237585h-100.062188v-50.42717h100.023547l-30.797283-25.967094 29.17434-29.17434 80.548226 80.470943-80.548226 80.470944-29.17434-29.135698zM853.784151 195.912453c169.887396 4.540377 304.495094 143.572528 304.495094 314.464604 0 171.123925-134.569057 310.175396-304.688302 315.121509l1.545661-61.246792c19.668528-0.695547 35.028528-3.825509 53.402566-8.597736 14.258717-23.30083 32.555472-67.815849 44.321811-127.285132h-95.251321v-14.258717h98.671095c4.521057-27.551396 7.457811-60.763774 7.902188-96.256h-106.573283v-14.258717h106.573283a729.60966 729.60966 0 0 0-7.921509-96.313963h-98.651774v-14.220075h95.695698c-11.76634-59.005585-29.850566-103.327396-44.089962-127.053283a221.570415 221.570415 0 0 0-53.846943-8.829585l-1.564981-61.246792z m242.958491 307.45117c-1.352453-33.424906-8.810264-67.352151-21.716529-96.256h-99.791698c4.327849 27.551396 7.283925 60.995623 7.728302 96.256h113.799245z m-164.458265-230.110189c13.331321 24.150943 29.386868 66.463396 39.607548 119.55683h93.628377c-29.17434-52.436528-76.220377-98.342642-133.235925-119.576151z m-0.444377 474.710943c57.208755-21.25283 104.274113-67.371472 133.448453-119.788679h-93.396528c-10.433208 53.76966-26.469434 95.830943-40.051925 119.788679z m43.220528-134.086037h99.30868a259.052679 259.052679 0 0 0 22.605283-96.256h-114.031095a690.852226 690.852226 0 0 1-7.882868 96.27532z" fill="#1296db" p-id="4559" data-spm-anchor-id="a313x.7781069.0.i13" class="selected"></path></svg>