<?xml version="1.0" standalone="no"?><!DOCTYPE svg PUBLIC "-//W3C//DTD SVG 1.1//EN" "http://www.w3.org/Graphics/SVG/1.1/DTD/svg11.dtd"><svg t="1575976784092" class="icon" viewBox="0 0 1146 1024" version="1.1" xmlns="http://www.w3.org/2000/svg" p-id="9242" xmlns:xlink="http://www.w3.org/1999/xlink" width="223.828125" height="200"><defs><style type="text/css"></style></defs><path d="M19.981868 19.981868m19.981868 0l1039.057137 0q19.981868 0 19.981868 19.981868l0 919.165929q0 19.981868-19.981868 19.981868l-1039.057137 0q-19.981868 0-19.981868-19.981868l0-919.165929q0-19.981868 19.981868-19.981868Z" fill="#1296db" p-id="9243" data-spm-anchor-id="a313x.7781069.0.i45" class="selected"></path><path d="M1079.020873 999.093401H39.963736a39.963736 39.963736 0 0 1-39.963736-39.963736V39.963736a39.963736 39.963736 0 0 1 39.963736-39.963736h1039.057137a39.963736 39.963736 0 0 1 39.963736 39.963736v919.165929a39.963736 39.963736 0 0 1-39.963736 39.963736zM39.963736 39.963736v919.165929h1039.057137V39.963736z" fill="#0A4E66" p-id="9244" data-spm-anchor-id="a313x.7781069.0.i44" class=""></path><path d="M1099.002741 669.392579H9.990934v-339.691757H1099.002741v19.981868H29.972802v299.728021H1099.002741v19.981868z" fill="#0A4E66" p-id="9245"></path><path d="M509.537634 339.691756v319.709889" fill="#44AECF" p-id="9246"></path><path d="M509.537634 669.392579a9.990934 9.990934 0 0 1-9.990934-9.990934V339.691756a9.990934 9.990934 0 0 1 19.981868 0v319.709889a9.990934 9.990934 0 0 1-9.990934 9.990934zM169.845878 659.401645h19.981868v319.709888h-19.981868z" fill="#0A4E66" p-id="9247"></path><path d="M949.138731 349.68269h-699.365381V19.981868h19.981868v309.718954h659.401645V19.981868h19.981868v329.700822z" fill="#0A4E66" p-id="9248"></path><path d="M923.362121 691.972089a250.372806 250.372806 0 0 0-491.553953-34.568631 158.056576 158.056576 0 1 0-33.969176 312.516415h478.166102a143.070175 143.070175 0 0 0 47.357027-277.947784z" fill="#1296db" p-id="9249" data-spm-anchor-id="a313x.7781069.0.i43" class="selected"></path><path d="M876.005094 979.111533H397.838992a168.247329 168.247329 0 0 1 0-336.294839 170.844972 170.844972 0 0 1 26.775703 2.198006 259.764284 259.764284 0 0 1 507.939085 39.963736A153.061109 153.061109 0 0 1 876.005094 979.111533zM397.838992 663.597837a148.265461 148.265461 0 0 0 0 296.331102h478.166102A133.079241 133.079241 0 0 0 919.165929 701.363567a9.990934 9.990934 0 0 1-6.594017-8.392384A239.782416 239.782416 0 0 0 441.599283 659.401645a9.990934 9.990934 0 0 1-11.789302 7.193472 156.458027 156.458027 0 0 0-31.970989-2.99728z" fill="#0A4E66" p-id="9250"></path><path d="M439.601096 959.129665h579.474173v39.963736H439.601096z" fill="#0A4E66" p-id="9251"></path></svg>