<?xml version="1.0" standalone="no"?><!DOCTYPE svg PUBLIC "-//W3C//DTD SVG 1.1//EN" "http://www.w3.org/Graphics/SVG/1.1/DTD/svg11.dtd"><svg t="1575976359506" class="icon" viewBox="0 0 1453 1024" version="1.1" xmlns="http://www.w3.org/2000/svg" p-id="7468" data-spm-anchor-id="a313x.7781069.0.i25" xmlns:xlink="http://www.w3.org/1999/xlink" width="283.7890625" height="200"><defs><style type="text/css"></style></defs><path d="M544 903.791304C302.747826 903.791304 192 503.373913 153.321739 242.921739c33.669565 19.2 77.078261 28.93913 134.956522 28.939131 120.486957 0 207.304348-62.608696 255.443478-115.756522 48.13913 48.13913 130.226087 115.756522 255.443478 115.756522 57.878261 0 101.286957-14.469565 134.956522-28.939131-14.469565 106.017391-43.408696 231.513043-82.086956 347.269565h101.286956c77.078261-226.504348 91.547826-463.026087 91.547826-482.226087 0-24.208696-14.469565-43.408696-38.678261-48.13913-24.208696-4.730435-48.13913 9.73913-53.147826 33.669565-4.730435 9.73913-28.93913 82.086957-154.434782 82.086957-134.956522 0-207.304348-115.756522-212.034783-120.486957-9.73913-14.469565-24.208696-24.208696-43.408696-24.208695-14.469565 0-33.669565 9.73913-43.408695 24.208695-4.730435 4.730435-77.078261 120.486957-212.034783 120.486957-125.495652 0-149.426087-77.078261-154.434782-82.086957-3.895652-23.930435-28.104348-38.4-52.313044-33.669565s-43.408696 24.208696-38.678261 48.13913c0 38.678261 57.878261 892.104348 501.426087 892.104348 28.93913 0 57.878261-4.730435 86.817391-9.73913v-101.286957c-28.66087 9.73913-57.6 14.747826-86.53913 14.747826z" fill="#1296db" p-id="7469" data-spm-anchor-id="a313x.7781069.0.i26" class="selected"></path><path d="M961.113043 946.643478h-37.565217l-56.486956-192-60.382609 192h-37.286957L678.956522 642.226087h51.756521l58.713044 207.026087 63.721739-207.026087h31.443478l57.878261 204.8 56.765218-204.8h51.2zM1275.826087 946.643478h-52.313044l-31.443478-85.704348h-99.060869l-31.721739 85.704348h-51.756522l114.921739-304.417391h38.121739l113.252174 304.417391zM1110.26087 814.469565h65.113043l-32.556522-89.043478-32.556521 89.043478zM1335.373913 946.643478h-47.86087V642.226087h157.495653v46.469565h-109.634783v83.2h101.843478v46.469565h-101.843478z" p-id="7470" data-spm-anchor-id="a313x.7781069.0.i27" class="selected" fill="#1296db"></path></svg>