<?xml version="1.0" standalone="no"?><!DOCTYPE svg PUBLIC "-//W3C//DTD SVG 1.1//EN" "http://www.w3.org/Graphics/SVG/1.1/DTD/svg11.dtd"><svg t="1575977923062" class="icon" viewBox="0 0 1024 1024" version="1.1" xmlns="http://www.w3.org/2000/svg" p-id="23532" data-spm-anchor-id="a313x.7781069.0.i113" xmlns:xlink="http://www.w3.org/1999/xlink" width="200" height="200"><defs><style type="text/css"></style></defs><path d="M938.07965 118.12758c0-20.325836-10.283332-30.373501-30.373501-30.373501H123.355256c-20.09361 0-30.375221 10.047665-30.375221 30.373501v621.26599c0 20.09361 10.281612 30.373501 30.375221 30.373501h322.664046v145.095093h-76.402506c-6.541905 0-11.915798 2.334306-16.58957 6.774132-4.439826 4.672052-6.774132 10.045945-6.774132 16.58957 0 6.307959 2.336026 11.914078 6.774132 16.587851 4.673773 4.439826 10.047665 6.775852 16.58957 6.775852h273.363229c6.311399 0 11.919238-2.336026 16.59301-6.775852 4.436386-4.673773 6.774132-10.279891 6.774132-16.587851 0-6.543626-2.336026-11.917518-6.774132-16.58957-4.673773-4.439826-10.281612-6.774132-16.59301-6.774132h-60.513056v-145.095093h325.235739c20.091889 0 30.373501-10.281612 30.373501-30.373501V118.12758z m-46.729125 16.353904v588.556463H139.710879V134.481484h751.639646z m-398.600378 635.285587h42.989418v145.095093h-42.989418v-145.095093z" p-id="23533" data-spm-anchor-id="a313x.7781069.0.i115" class="" fill="#1296db"></path><path d="M653.263356 240.091197c1.635906-20.327556-9.111878-30.375221-32.007687-30.375221H427.795545c-22.663582 0-33.411367 10.045945-31.77546 30.375221v115.421712H357.234825c-22.663582 0-33.17742 10.045945-31.77546 30.371781v229.441464c-1.635906 20.325836 9.111878 30.371781 32.009407 30.37178H692.982682c22.429636 0 33.179141-10.045945 31.777181-30.37178V385.88469c1.40196-20.325836-9.347545-30.371781-31.777181-30.371781h-39.719326v-115.421712z m-210.514147 16.355624h163.783303v99.066088h-163.783303v-99.066088z m-70.56072 145.793492h305.840529v196.730217H372.188489V402.240313z" p-id="23534" data-spm-anchor-id="a313x.7781069.0.i114" class="selected" fill="#13227a"></path><path d="M522.655754 414.857951h-0.698399c-12.617638 0-23.599369 4.673773-32.245075 13.785651l0.467894-0.466173c-9.111878 8.877932-13.785651 19.857943-13.785651 32.47558 0 12.615918 4.439826 23.363702 13.551704 32.243354 0 0 0 0.233947 0.233947 0.233947 3.036146 3.036146 6.307959 5.607839 9.578051 7.477692v62.615135c0 6.307959 2.337746 11.915798 7.009799 16.58785 4.439826 4.441546 10.045945 6.775852 16.355623 6.775852 6.541905 0 12.149744-2.334306 16.591291-6.775852 4.672052-4.672052 6.774132-10.279891 6.774132-16.58785v-63.550922c3.036146-1.869853 5.606119-4.204159 8.177812-6.541905 8.876211-9.113598 13.316037-19.861383 13.316037-32.477301 0-12.617638-4.439826-23.365422-13.316037-32.243354h0.233946c-8.879652-8.879652-19.627436-13.551704-32.245074-13.551704z m0 44.860992l0.235667 0.232226s0 0.467893 0.233947 0.70184v0.466173c-0.233947 0-0.467893 0.233947-0.934067 0.467894-0.233947-0.233947-0.466173-0.467893-0.70184-0.467894 0-0.232226 0-0.232226-0.233946-0.466173 0.233947-0.467893 0.467893-0.70184 0.467893-0.70184l0.233947-0.232226h0.698399z" p-id="23535" data-spm-anchor-id="a313x.7781069.0.i117" class="selected" fill="#13227a"></path></svg>