<?xml version="1.0" standalone="no"?><!DOCTYPE svg PUBLIC "-//W3C//DTD SVG 1.1//EN" "http://www.w3.org/Graphics/SVG/1.1/DTD/svg11.dtd"><svg t="1575977496213" class="icon" viewBox="0 0 1024 1024" version="1.1" xmlns="http://www.w3.org/2000/svg" p-id="17739" data-spm-anchor-id="a313x.7781069.0.i94" xmlns:xlink="http://www.w3.org/1999/xlink" width="200" height="200"><defs><style type="text/css"></style></defs><path d="M515.584 27.52c29.568 7.808 118.656 30.592 196.224 43.008 59.264 9.344 157.568 22.272 196.992 27.264V656.64c-11.904 24.064-12.8 25.6-12.8 27.648-6.144 17.536-54.784 120.064-137.216 184.064-124.544 96.512-215.168 122.88-243.2 129.024-28.288-6.144-120.576-32.384-247.424-129.152-83.84-64-133.376-166.4-139.648-183.936-0.64-1.792-1.28-3.712-12.8-27.648V97.92c40.192-5.12 140.8-17.92 200.704-27.392 78.848-12.8 169.472-35.2 199.68-43.008M519.424 0l-3.84 1.024L512 0v1.92c-26.368 6.912-119.424 30.464-199.936 43.136-59.264 9.344-156.416 21.76-199.936 27.264a25.6 25.6 0 0 0-22.528 25.6v558.592a25.6 25.6 0 0 0 2.688 11.52c4.096 8.192 11.392 22.784 12.16 24.704 7.552 20.992 59.52 128 148.224 195.712C387.84 991.488 486.4 1017.472 512 1022.72v1.28h6.656v-1.28c25.6-5.376 122.496-31.36 255.232-134.272 87.168-67.584 138.368-174.848 145.664-195.712 0.64-1.92 7.936-16.64 11.904-24.832a25.6 25.6 0 0 0 2.944-11.264V97.792a25.6 25.6 0 0 0-22.272-25.6c-43.008-5.504-138.112-17.92-196.224-27.264C636.8 32.512 545.536 8.96 519.424 2.048V0z" fill="#13227a" p-id="17740" data-spm-anchor-id="a313x.7781069.0.i93" class=""></path><path d="M448 494.08l25.6 7.808a107.904 107.904 0 0 1-29.568 58.624 73.088 73.088 0 0 1-51.2 19.328 78.08 78.08 0 0 1-45.44-12.8 91.776 91.776 0 0 1-31.616-42.24 174.08 174.08 0 0 1-12.032-67.584 158.08 158.08 0 0 1 12.032-65.152 92.032 92.032 0 0 1 32.512-40.32 81.28 81.28 0 0 1 45.824-13.568 70.272 70.272 0 0 1 47.616 17.152 93.184 93.184 0 0 1 27.904 50.56l-24.832 7.168q-12.8-48.512-51.2-48.512a56.448 56.448 0 0 0-33.152 9.728 65.92 65.92 0 0 0-22.4 30.464 140.8 140.8 0 0 0-8.32 52.352 125.056 125.056 0 0 0 16.896 71.808 52.224 52.224 0 0 0 44.8 23.936 49.28 49.28 0 0 0 35.712-14.72A79.36 79.36 0 0 0 448 494.08zM640 494.08l25.6 7.808a107.904 107.904 0 0 1-29.44 58.624 73.088 73.088 0 0 1-51.2 19.328 78.08 78.08 0 0 1-45.44-12.8 91.648 91.648 0 0 1-30.976-42.24 174.08 174.08 0 0 1-12.032-67.584 158.336 158.336 0 0 1 12.032-65.152 92.16 92.16 0 0 1 32.512-40.32 81.152 81.152 0 0 1 45.824-13.568 70.272 70.272 0 0 1 47.616 17.152 93.184 93.184 0 0 1 27.904 50.56l-24.832 7.168q-12.8-48.512-51.2-48.512a56.448 56.448 0 0 0-33.152 9.728 66.048 66.048 0 0 0-22.4 30.464 140.8 140.8 0 0 0-8.32 52.352 125.184 125.184 0 0 0 16.896 71.808 52.352 52.352 0 0 0 44.8 23.936 49.28 49.28 0 0 0 35.712-14.72A79.36 79.36 0 0 0 640 494.08z" fill="#1296db" p-id="17741" data-spm-anchor-id="a313x.7781069.0.i101" class=""></path><path d="M524.8 115.2a12.8 12.8 0 0 0-12.8 12.8v140.8a12.8 12.8 0 0 0 25.6 0V128a12.8 12.8 0 0 0-12.8-12.8z" fill="#1296db" p-id="17742" data-spm-anchor-id="a313x.7781069.0.i103" class=""></path><path d="M524.8 665.6a12.8 12.8 0 0 0-12.8 12.8v140.8a12.8 12.8 0 0 0 25.6 0V678.4a12.8 12.8 0 0 0-12.8-12.8z" fill="#1296db" p-id="17743" data-spm-anchor-id="a313x.7781069.0.i105" class=""></path><path d="M742.4 137.6a12.8 12.8 0 0 0-17.536 4.736l-70.4 121.984A12.8 12.8 0 0 0 659.2 281.6a12.8 12.8 0 0 0 17.536-4.736l70.4-121.984a12.8 12.8 0 0 0-4.736-17.28z" fill="#1296db" p-id="17744" data-spm-anchor-id="a313x.7781069.0.i107" class=""></path><path d="M390.4 678.4a12.8 12.8 0 0 0-17.536 4.736l-70.4 121.984a12.8 12.8 0 0 0 4.736 17.28 12.8 12.8 0 0 0 17.536-4.736l70.4-121.984A12.8 12.8 0 0 0 390.4 678.4z" fill="#1296db" p-id="17745" data-spm-anchor-id="a313x.7781069.0.i102" class=""></path><path d="M394.368 262.4l-71.168-123.264a12.8 12.8 0 0 0-17.536-4.736 12.8 12.8 0 0 0-4.736 17.536l71.168 123.264a12.8 12.8 0 0 0 17.536 4.736 12.8 12.8 0 0 0 4.736-17.536z" fill="#1296db" p-id="17746" data-spm-anchor-id="a313x.7781069.0.i106" class=""></path><path d="M748.672 807.936l-71.168-123.264a12.8 12.8 0 0 0-17.536-4.736 12.8 12.8 0 0 0-4.736 17.536l71.168 123.264a12.8 12.8 0 0 0 17.536 4.736 12.8 12.8 0 0 0 4.736-17.536z" fill="#1296db" p-id="17747" data-spm-anchor-id="a313x.7781069.0.i104" class=""></path><path d="M102.4 102.4m-38.4 0a38.4 38.4 0 1 0 76.8 0 38.4 38.4 0 1 0-76.8 0Z" fill="#13227a" p-id="17748" data-spm-anchor-id="a313x.7781069.0.i98" class=""></path><path d="M102.4 76.8a25.6 25.6 0 1 1-25.6 25.6 25.6 25.6 0 0 1 25.6-25.6m0-25.6a51.2 51.2 0 1 0 51.2 51.2 51.2 51.2 0 0 0-51.2-51.2z" fill="#13227a" p-id="17749" data-spm-anchor-id="a313x.7781069.0.i97" class=""></path><path d="M921.6 665.6m-38.4 0a38.4 38.4 0 1 0 76.8 0 38.4 38.4 0 1 0-76.8 0Z" fill="#13227a" p-id="17750" data-spm-anchor-id="a313x.7781069.0.i95" class="selected"></path><path d="M921.6 640a25.6 25.6 0 1 1-25.6 25.6 25.6 25.6 0 0 1 25.6-25.6m0-25.6a51.2 51.2 0 1 0 51.2 51.2 51.2 51.2 0 0 0-51.2-51.2z" fill="#13227a" p-id="17751" data-spm-anchor-id="a313x.7781069.0.i96" class=""></path></svg>