<svg xmlns="http://www.w3.org/2000/svg" xmlns:xlink="http://www.w3.org/1999/xlink" viewBox="0 0 1779.2 1884">
  <defs>
    <style>
      .b{clip-path:url(#a)}.c{fill:#08e3f0}.d{fill:#684ca6}.e{fill:#5963b2}.g,.r{fill:#4a4194}.l{fill:#21bad6}.m{fill:#0fc9e4}.n{fill:#00dfef}.r{isolation:isolate;opacity:.8}.t{fill:#3b8dc5}
    </style>
    <clipPath id="a" transform="translate(-69.1 -13.5)">
      <path fill="none" d="M0 0h1920v1762H0z"/>
    </clipPath>
    <linearGradient id="g" x1="1690.1" y1="1510" x2="1848.3" y2="1510" gradientTransform="matrix(1 0 0 -1 0 1764)" gradientUnits="userSpaceOnUse">
      <stop offset="0" stop-color="#08e3f0"/>
      <stop offset="1" stop-color="#08e3f0" stop-opacity="0"/>
    </linearGradient>
    <linearGradient id="j" x1="1582.9" y1="2454.4" x2="1689.3" y2="2454.4" gradientTransform="scale(-1 1) rotate(-74.3 -872.2 3287.9)" gradientUnits="userSpaceOnUse">
      <stop offset="0" stop-color="#08e3f0" stop-opacity=".8"/>
      <stop offset="1" stop-color="#08e3f0" stop-opacity="0"/>
    </linearGradient>
    <linearGradient id="l" x1="749.3" y1="2084.4" x2="855.7" y2="2084.4" xlink:href="#j"/>
    <linearGradient id="n" x1="1345.8" y1="3569.9" x2="1422.2" y2="3569.9" gradientTransform="rotate(-74.3 -717.3 3076.8)" xlink:href="#j"/>
    <linearGradient id="ae" x1="-555.7" y1="-636" x2="-475.7" y2="-636" gradientTransform="matrix(1 -.09 -.09 -1 1909.5 -169.2)" xlink:href="#g"/>
    <linearGradient id="co" x1="1357.4" y1="1462.7" x2="1119" y2="1701.1" gradientTransform="matrix(1 0 0 -1 -69.1 1750.5)" gradientUnits="userSpaceOnUse">
      <stop offset="0" stop-color="#08e3f0"/>
      <stop offset=".1" stop-color="#1fbede"/>
      <stop offset=".2" stop-color="#349dce"/>
      <stop offset=".3" stop-color="#4682c1"/>
      <stop offset=".5" stop-color="#536cb7"/>
      <stop offset=".6" stop-color="#5d5db0"/>
      <stop offset=".8" stop-color="#6255ab"/>
      <stop offset="1" stop-color="#6452aa"/>
    </linearGradient>
    <linearGradient id="cr" x1="1177.7" y1="1591" x2="1480" y2="1591" gradientTransform="matrix(1 0 0 -1 0 1764)" gradientUnits="userSpaceOnUse">
      <stop offset="0" stop-color="#08e3f0" stop-opacity=".1"/>
      <stop offset="1" stop-color="#08e3f0" stop-opacity=".8"/>
    </linearGradient>
    <linearGradient id="ct" x1="1088.9" y1="1466.4" x2="1309.6" y2="1466.4" gradientTransform="matrix(1 0 0 -1 0 1764)" gradientUnits="userSpaceOnUse">
      <stop offset="0" stop-color="#08e3f0" stop-opacity=".1"/>
      <stop offset="1" stop-color="#08e3f0" stop-opacity=".6"/>
    </linearGradient>
    <linearGradient id="el" x1="1604.7" y1="806.6" x2="1604.7" y2="964.3" gradientTransform="matrix(.86 -.02 .02 -.86 116.1 1585.3)" gradientUnits="userSpaceOnUse">
      <stop offset="0" stop-color="#00dfef" stop-opacity=".8"/>
      <stop offset=".9" stop-color="#00dfef" stop-opacity="0"/>
    </linearGradient>
  </defs>
  <g class="b">
    <path class="c" d="M471.2 1764.5l-181.1-104.3 24.6-14.2 181 104.3z"/>
  </g>
  <g class="b">
    <path class="d" d="M471.2 1788.2l-139.6-80.6v-23.7l139.6 80.6z"/>
  </g>
  <g class="b">
    <path class="d" d="M243.1 1432.4V1563l6.3 3.6v-87.4c.2-8.9 7.9-11.6 17.4-6.1s17.2 17.2 17.4 26.2v273.5l6.3 3.6v-316.7l-47.4-27.3z"/>
    <path class="e" d="M296.6 1456.1v316.7l-6.3 3.6v-273.5c-.2-8.9-7.9-11.6-17.4-6.1s-17.2 17.2-17.4 26.2v273.5l-6.3 3.6v-316.7l47.4-27.3z"/>
    <path class="e" d="M255.6 1432.4V1563l-6.3 3.6v-87.4c-.2-8.9-7.9-11.6-17.4-6.1s-17.2 17.2-17.4 26.2v273.5l-6.3 3.6v-316.7l47.4-27.3z"/>
    <path class="d" d="M202.1 1456.1v316.7l6.3 3.6v-273.5c.2-8.9 7.9-11.6 17.4-6.1s17.2 17.2 17.4 26.2v274.9l6.3 3.6v-318.2l-47.4-27.2z"/>
  </g>
  <g class="b">
    <path class="e" d="M197.3 1398.7l206.5-118.8v23.7l-206.5 118.8zm-72.1 404l206.4-118.8v23.7l-206.4 118.7z"/>
  </g>
  <g class="b">
    <path class="e" d="M696.8 1325.5l-32.7 69.6-112.6 140.3v-284.6z"/>
  </g>
  <path d="M1695.1 329.9a17.3 17.3 0 0 0 24.4 0s135.4-150 128.6-156.7-153 132.3-153 132.3a17.3 17.3 0 0 0 0 24.4z" transform="translate(-69.1 -13.5)" fill="url(#g)"/>
  <g class="b">
    <circle class="g" cx="1638.6" cy="303.8" r="17.2"/>
  </g>
  <path d="M1047.8 680.2a7.7 7.7 0 0 0-2.9-10.4S920.2 605 918.1 608.6s119.3 74.5 119.3 74.5a7.6 7.6 0 0 0 10.4-2.9z" transform="translate(-69.1 -13.5)" fill="url(#j)"/>
  <path d="M1630.2 1382.1a7.7 7.7 0 0 0-2.9-10.4s-124.7-64.8-126.8-61.2 119.3 74.4 119.3 74.4a7.4 7.4 0 0 0 10.4-2.8z" transform="translate(-69.1 -13.5)" fill="url(#l)"/>
  <path d="M280.7 1215.8a5.6 5.6 0 0 1 2.1-7.5s89.6-46.6 91-43.9-85.7 53.5-85.7 53.5a5.4 5.4 0 0 1-7.4-2.1z" transform="translate(-69.1 -13.5)" fill="url(#n)"/>
  <g class="b">
    <circle class="g" cx="1365.2" cy="173.7" r="5"/>
  </g>
  <g class="b">
    <circle class="c" cx="1580.1" cy="168.6" r="5"/>
  </g>
  <g class="b">
    <circle class="g" cx="1108.6" cy="427.6" r="5"/>
  </g>
  <g class="b">
    <circle class="g" cx="18.3" cy="1678.7" r="5"/>
  </g>
  <g class="b">
    <circle class="g" cx="949.3" cy="1174.4" r="5"/>
  </g>
  <g class="b">
    <circle class="g" cx="696.8" cy="1531.9" r="5"/>
  </g>
  <g class="b">
    <circle class="g" cx="1721" cy="1626.7" r="5"/>
  </g>
  <g class="b">
    <circle class="g" cx="5" cy="1170.4" r="5"/>
  </g>
  <g class="b">
    <circle class="c" cx="1383.3" cy="334.8" r="5"/>
  </g>
  <g class="b">
    <circle class="c" cx="1273.4" cy="1326.5" r="5"/>
  </g>
  <g class="b">
    <circle class="c" cx="1113.1" cy="1543" r="5"/>
  </g>
  <g class="b">
    <circle class="c" cx="209.6" cy="1292.9" r="5"/>
  </g>
  <g class="b">
    <circle class="c" cx="1655.7" cy="1170.8" r="5"/>
  </g>
  <g class="b">
    <circle class="c" cx="553.2" cy="1657.3" r="5"/>
  </g>
  <g class="b">
    <circle class="c" cx="1621.2" cy="490.3" r="5"/>
  </g>
  <path d="M1422.2 554.2a8.7 8.7 0 0 0 12.3-1.2s61-81.9 57.3-84.9-70.7 73.8-70.7 73.8a8.6 8.6 0 0 0 1.1 12.3z" transform="translate(-69.1 -13.5)" fill="url(#ae)"/>
  <g class="b">
    <circle class="g" cx="1358.8" cy="533.9" r="8.6"/>
  </g>
  <g class="b">
    <path class="d" d="M1185.6 1374.1l-24.6-14.2v-190l24.6 14.3zm105.8-135.1l-24.6-14.2v-73.1l24.6 14.2z"/>
    <path class="e" d="M1313.9 1110.1l-128.3 74.1v189.9l22.5-13v-123.7h.1c0-25.2 18.7-56.3 41.7-69.6s41.7-3.7 41.7 21.5l-.1 2.9v46.9l22.5-13v-116z"/>
    <path class="c" d="M1313.9 1110.1l-128.3 74.1-24.6-14.2 128.3-70.4z"/>
  </g>
  <g class="b">
    <path class="e" d="M1292.8 1123.8V906.3l21.1-12.2v217.5z"/>
  </g>
  <g class="b">
    <path class="c" d="M1652 732.4l-47.8-27.6 47.7-27.6 47.8 27.6zm-131.9 153.7l-47.8-27.6 74.1-42.8 47.8 27.6z"/>
  </g>
  <g class="b">
    <path class="e" d="M1555.7 511.1l-47.8 27.6v-11.1l47.8-27.6z"/>
  </g>
  <g class="b">
    <path class="c" d="M1565.4 516.6l-47.8 27.5-9.7-5.5 47.8-27.6z"/>
  </g>
  <g class="b">
    <path class="e" d="M1565.4 527.7l-47.8 27.6v-11.2l47.8-27.5z"/>
  </g>
  <g class="b">
    <path class="c" d="M1575 533.1l-47.8 27.6-9.6-5.5 47.8-27.6z"/>
  </g>
  <g class="b">
    <path class="e" d="M1575 544.2l-47.8 27.6v-11.1l47.8-27.6z"/>
  </g>
  <g class="b">
    <path class="c" d="M1584.6 549.8l-47.8 27.6-9.6-5.6 47.8-27.6z"/>
  </g>
  <g class="b">
    <path class="d" d="M1536.8 588.5l-9.6-5.6v-11.1l9.6 5.6zm-9.6-16.7l-9.6-5.5v-11.1l9.6 5.5zm-9.6-16.5l-9.7-5.6v-11.1l9.7 5.5zm-9.7-16.6l-47.8-27.6V500l47.8 27.6z"/>
  </g>
  <g class="b">
    <path class="e" d="M1584.6 560.9l-47.8 27.6v-11.1l47.8-27.6z"/>
  </g>
  <g class="b">
    <path class="c" d="M1594.2 566.4l-47.7 27.5-9.7-5.5 47.8-27.6z"/>
  </g>
  <g class="b">
    <path class="d" d="M1546.5 605.1l-9.7-5.6v-11.1l9.7 5.6z"/>
  </g>
  <g class="b">
    <path class="e" d="M1594.2 577.5l-47.7 27.6v-11.2l47.7-27.5z"/>
  </g>
  <g class="b">
    <path class="c" d="M1603.9 583l-47.8 27.6-9.6-5.5 47.7-27.6z"/>
  </g>
  <g class="b">
    <path class="d" d="M1556.1 621.7l-9.6-5.5v-11.1l9.6 5.5z"/>
  </g>
  <g class="b">
    <path class="e" d="M1603.9 594.1l-47.8 27.6v-11.1l47.8-27.6z"/>
  </g>
  <g class="b">
    <path class="c" d="M1613.5 599.6l-47.8 27.6-9.6-5.6 47.8-27.6z"/>
  </g>
  <g class="b">
    <path class="d" d="M1565.7 638.3l-9.6-5.5v-11.2l9.6 5.6z"/>
  </g>
  <g class="b">
    <path class="e" d="M1613.5 610.7l-47.8 27.6v-11.1l47.8-27.6z"/>
  </g>
  <g class="b">
    <path class="c" d="M1623.1 616.3l-47.8 27.6-9.6-5.6 47.8-27.6z"/>
  </g>
  <g class="b">
    <path class="d" d="M1575.3 655l-9.6-5.6v-11.1l9.6 5.6z"/>
  </g>
  <g class="b">
    <path class="e" d="M1623.1 627.4l-47.8 27.6v-11.1l47.8-27.6z"/>
  </g>
  <g class="b">
    <path class="c" d="M1632.7 632.8l-47.7 27.6-9.7-5.5 47.8-27.6z"/>
  </g>
  <g class="b">
    <path class="d" d="M1585 671.6l-9.7-5.6v-11.1l9.7 5.5z"/>
  </g>
  <g class="b">
    <path class="e" d="M1632.7 644l-47.7 27.6v-11.2l47.7-27.6z"/>
  </g>
  <g class="b">
    <path class="c" d="M1642.4 649.5l-47.8 27.6-9.6-5.5 47.7-27.6z"/>
  </g>
  <g class="b">
    <path class="d" d="M1594.6 688.2l-9.6-5.5v-11.1l9.6 5.5z"/>
  </g>
  <g class="b">
    <path class="e" d="M1642.4 660.6l-47.8 27.6v-11.1l47.8-27.6z"/>
  </g>
  <g class="b">
    <path class="c" d="M1652 666.1l-47.8 27.6-9.6-5.6 47.8-27.6z"/>
  </g>
  <g class="b">
    <path class="d" d="M1604.2 704.8l-9.6-5.6v-11.1l9.6 5.6z"/>
  </g>
  <g class="b">
    <path class="e" d="M1652 677.2l-47.8 27.6v-11.1l47.8-27.6zm0 66.3l47.7-27.5v-11.2l-47.7 27.6zm-127.2 151l79.1-45.7v-11.1l-79.1 45.7z"/>
  </g>
  <g class="b">
    <path class="d" d="M1604.2 715.9l47.8 27.6v-11.1l-47.8-27.6z"/>
  </g>
  <g class="b">
    <path class="c" d="M1594.6 721.4l47.8 27.6 9.6-5.6-47.8-27.6z"/>
  </g>
  <g class="b">
    <path class="e" d="M1642.4 760.1l9.6-5.6v-11.1l-9.6 5.6z"/>
  </g>
  <g class="b">
    <path class="d" d="M1594.6 732.5l47.8 27.6V749l-47.8-27.6z"/>
  </g>
  <g class="b">
    <path class="c" d="M1585 738.1l47.8 27.5 9.6-5.5-47.8-27.6z"/>
  </g>
  <g class="b">
    <path class="e" d="M1632.8 776.8l9.6-5.6v-11.1l-9.6 5.5z"/>
  </g>
  <g class="b">
    <path class="d" d="M1585 749.2l47.8 27.6v-11.2l-47.8-27.5z"/>
  </g>
  <g class="b">
    <path class="c" d="M1575.3 754.6l47.8 27.6 9.7-5.5-47.8-27.6z"/>
  </g>
  <g class="b">
    <path class="e" d="M1623.1 793.3l9.7-5.5v-11.1l-9.7 5.5z"/>
  </g>
  <g class="b">
    <path class="d" d="M1575.3 765.7l47.8 27.6v-11.1l-47.8-27.6z"/>
  </g>
  <g class="b">
    <path class="c" d="M1565.7 771.3l47.8 27.6 9.6-5.6-47.8-27.6z"/>
  </g>
  <g class="b">
    <path class="e" d="M1613.5 810l9.6-5.5v-11.2l-9.6 5.6z"/>
  </g>
  <g class="b">
    <path class="d" d="M1565.7 782.4l47.8 27.6v-11.1l-47.8-27.6z"/>
  </g>
  <g class="b">
    <path class="c" d="M1556.1 787.9l47.8 27.6 9.6-5.6-47.8-27.6z"/>
  </g>
  <g class="b">
    <path class="e" d="M1603.9 826.6l9.6-5.6v-11.1l-9.6 5.6z"/>
  </g>
  <g class="b">
    <path class="d" d="M1556.1 799l47.8 27.6v-11.1l-47.8-27.6z"/>
  </g>
  <g class="b">
    <path class="c" d="M1546.5 804.5l47.8 27.6 9.6-5.5-47.8-27.6z"/>
  </g>
  <g class="b">
    <path class="e" d="M1594.3 843.3l9.6-5.6v-11.1l-9.6 5.5z"/>
  </g>
  <g class="b">
    <path class="d" d="M1546.5 815.7l47.8 27.6v-11.2l-47.8-27.6z"/>
  </g>
  <g class="b">
    <path class="c" d="M1507.9 527.6l-47.8-27.6 47.8-27.6 47.8 27.6z"/>
  </g>
  <g class="b">
    <path class="d" d="M1501.6 313.9V454l6.3 3.6v-96.4c.2-8.9 8-11.7 17.6-6.2s17.4 17.3 17.6 26.5v118.4l6.3 3.6v-162z"/>
  </g>
  <g class="b">
    <path class="e" d="M1555.8 337.8v162.1l-6.3 3.6V385.2c-.2-8.9-8-11.7-17.6-6.2s-17.4 17.3-17.6 26.5v118.4l-6.3 3.6V365.4z"/>
  </g>
  <g class="b">
    <path class="e" d="M1514.3 313.9V454l-6.3 3.6v-96.4c-.2-8.9-8-11.7-17.6-6.2s-17.4 17.3-17.6 26.5v118.4l-6.3 3.6v-162z"/>
  </g>
  <g class="b">
    <path class="l" d="M1508 365.4l-47.8-27.6 11.7-23.7h71.7l12.1 23.8z"/>
  </g>
  <g class="b">
    <path class="m" d="M1471.9 314.1l12-10.8h47.8l11.9 10.8-35.8 20.7z"/>
  </g>
  <g class="b">
    <path class="n" d="M1483.9 303.3l23.8-13.8 24 13.8-23.9 13.8z"/>
  </g>
  <g class="b">
    <path class="d" d="M1460.1 337.8v162.1l6.3 3.6V385.2c.2-8.9 8-11.7 17.6-6.2s17.4 17.3 17.6 26.5v118.4l6.3 3.6V365.4z"/>
  </g>
  <circle cx="1169.1" cy="168.6" r="168.6" style="isolation:isolate" opacity=".5" fill="url(#co)"/>
  <g class="b">
    <circle class="g" cx="1282.4" cy="290.5" r="31.1"/>
    <path class="c" d="M1313.3 286.7a37.9 37.9 0 0 1-35.9 34.5 27.4 27.4 0 0 0 5 .4 31.1 31.1 0 0 0 31.1-31.1l-.2-3.8z"/>
  </g>
  <path d="M1177.9 233.4h-.2l.1-.2 302-120.5.2.1-.1.2z" transform="translate(-69.1 -13.5)" fill="url(#cr)"/>
  <path d="M1089 341.7h-.1l.1-.2 220.4-87.9h.2l-.1.2-220.5 87.9z" transform="translate(-69.1 -13.5)" fill="url(#ct)"/>
  <g class="b">
    <path class="c" d="M1446.5 928.5l-78.7-45.4 78.3-45.2 78.7 45.5z"/>
    <path class="d" d="M1383.8 1153.3l25.7 55.5 37 58.1V928.5l-78.7-45.4v261z"/>
    <path class="g" d="M1395.9 942.8l-12.3-7v-27.3l12.3 7.1zm0 47.6l-12.3-7.1v-27.2l12.3 7.1zm0 47.5l-12.3-7v-27.3l12.3 7.1zm0 47.6l-12.3-7.1v-27.2l12.3 7.1zm0 47.5l-12.3-7v-27.3l12.3 7.1zm45.9-191v5.5l-33.3-19.3v-5.4zm0 21.7v5.5l-33.3-19.2v-5.5zm0 21.8v5.5l-33.3-19.3v-5.4zm0 21.7v5.5l-33.3-19.2V988zm0 21.8v5.5l-33.3-19.3v-5.4zm0 21.7v5.5l-33.3-19.2v-5.5zm0 21.8v5.5l-33.3-19.3v-5.5zm0 21.7v5.5l-33.3-19.2v-5.5zm0 21.8v5.4l-33.3-19.2v-5.5zm0 21.7v5.5l-33.3-19.2v-5.5zm0 21.8v5.4l-33.3-19.2v-5.5z"/>
    <path class="e" d="M1509.3 1153.3l-25.7 55.5-37.1 58.1V928.5l78.3-45.1.5 260.7z"/>
    <path class="r" d="M1507.9 937.6l-12.3 7.1v-27.3l12.3-7zm0 47.5l-12.3 7.1V965l12.3-7.1zm0 47.6l-12.3 7.1v-27.3l12.3-7zm0 47.5l-12.3 7.1v-27.2l12.3-7.1zm0 47.6l-12.3 7.1v-27.3l12.3-7zm-31.5-172l-12.3 7v-27.2l12.3-7.1zm0 47.5l-12.3 7.1v-27.2l12.3-7.1zm0 47.6l-12.3 7v-27.2l12.3-7.1zm0 47.5l-12.3 7.1v-27.2l12.3-7.1zm0 47.6l-12.3 7v-27.2l12.3-7.1z"/>
  </g>
  <g class="b">
    <path class="c" d="M1190.5 667.8l-68.5-39.6 68-39.3 68.5 39.6z"/>
    <path class="d" d="M1135.9 863.3l22.3 48.3 32.3 50.6V667.8l-68.5-39.6v227.1z"/>
    <path class="g" d="M1146.4 680.2l-10.7-6.1v-23.7l10.7 6.1zm0 41.4l-10.7-6.2v-23.7l10.7 6.2zm0 41.4l-10.7-6.2v-23.7l10.7 6.2zm0 41.3l-10.7-6.1v-23.7l10.7 6.1zm0 41.4l-10.7-6.2v-23.7l10.7 6.2zm39.9-166.2v4.7l-29-16.7v-4.8zm0 18.9v4.8l-29-16.8v-4.7zm0 18.9v4.8l-29-16.7v-4.8zm0 18.9v4.8l-29-16.7v-4.8zm0 19v4.7l-29-16.7v-4.8zm0 18.9v4.7l-29-16.7v-4.7zm0 18.9v4.8l-29-16.8v-4.7zm0 18.9v4.8l-29-16.7v-4.8zm0 19v4.7l-29-16.7v-4.8zm0 18.9v4.7l-29-16.7V833zm0 18.9v4.8l-29-16.8V852z"/>
    <path class="e" d="M1221.2 837.9l1.5 73.7-32.2 50.6V667.8l68-39.3.4 226.8z"/>
    <path class="r" d="M1243.8 675.6l-10.7 6.2v-23.7l10.7-6.1zm0 51.2l-10.7 6.2v-23.7l10.7-6.1zm-27.4-35.3l-10.6 6.1v-23.7l10.6-6.1zm0 51.2l-10.6 6.1v-23.7l10.6-6.1z"/>
  </g>
  <g class="b">
    <path class="d" d="M1279.3 831.9V1116l13.5 7.8V920.1c.3-16.4 17-20.2 37.6-8.3s37.2 34.9 37.6 51.7v92.7l13.5 7.8V890.9z"/>
  </g>
  <g class="b">
    <path class="c" d="M1413.5 872.4l-102.1-59-32.1 18.5 102.1 59z"/>
  </g>
  <g class="b">
    <path class="e" d="M1204 1009.7V855.1l21.1-12.3v154.7z"/>
  </g>
  <g class="b">
    <path class="d" d="M1190.5 780.7v221.2l13.5 7.8V868.9c.3-16.4 17-20.2 37.6-8.3s37.2 34.9 37.6 51.7v92.7l13.5 7.8V839.7z"/>
  </g>
  <g class="b">
    <path class="c" d="M1324.7 821.2l-102.1-59-32.1 18.5 102.1 59z"/>
  </g>
  <g class="b">
    <path class="d" d="M1184 495v130l5.9 3.4V539c.1-8.3 7.4-10.9 16.3-5.7s16.2 16.1 16.3 24.6v67.2l5.9 3.4V520.6L1184 495z"/>
    <path class="e" d="M1234.3 517.2V625l-5.9 3.4v-67.2c-.1-8.3-7.4-10.9-16.3-5.7s-16.2 16.1-16.3 24.6v67.2l-5.9 3.4V542.8l44.4-25.6z"/>
    <path class="e" d="M1195.8 495v130l-5.9 3.4V539c-.1-8.3-7.4-10.9-16.3-5.7s-16.2 16.1-16.3 24.6v67.2l-5.9 3.4V520.6l44.4-25.6z"/>
    <path class="l" d="M1190 542.8l-44.4-25.6 10.9-22h66.5l11.2 22.1z"/>
    <path class="m" d="M1156.5 495.2l11.1-10h44.3l11.1 10-33.2 19.2z"/>
    <path class="n" d="M1167.6 485.2l22.1-12.8 22.2 12.8-22.1 12.8z"/>
    <path class="d" d="M1145.6 517.2V625l5.9 3.4v-67.2c.1-8.3 7.4-10.9 16.3-5.7s16.2 16.1 16.3 24.6v67.2l5.9 3.4V542.8l-44.4-25.6z"/>
  </g>
  <g class="b">
    <path class="c" d="M249.3 1483.6L127.1 1413l47.6-27.5 122.3 70.6zm-76.1 33.7l-112.8 65.1-47.8-27.6 112.8-65.1zm182.7 152.5l-232.7 135.4-41.2-23.8L314.7 1646zm506.7 119l313.8-180.8-22.7-13L840 1775.7z"/>
  </g>
  <g class="b">
    <path class="e" d="M894.6 1793.6l241-138.8v-23.3l-241 138.8zm438.8-23.7l88.4-51v-23.3l-88.4 51z"/>
  </g>
  <g class="b">
    <path class="d" d="M1333.4 1746.6l-197.8-115.1v23.3l197.8 115.1z"/>
  </g>
  <g class="b">
    <path class="c" d="M1113.1 1618.5l220.3 128.1 40.6-23.4-220.3-128.2z"/>
  </g>
  <g class="b">
    <path class="e" d="M249.4 1483.6l47.6-27.5v11.1l-47.7 27.5z"/>
  </g>
  <g class="b">
    <path class="c" d="M379 1294.2L149.6 1426l-22.5-13 229.4-131.8z"/>
  </g>
  <g class="b">
    <path class="c" d="M483.5 1372.1l52.8-30.5 87.9 50.7-52.8 30.6z"/>
    <path class="d" d="M463.1 1383.3l88.4 51v-197.4l-88.4-51.1z"/>
    <path class="d" d="M535.7 1341.3l88.5 51v-197.5l-88.5-51z"/>
    <path class="d" d="M579.2 1204.8l88.5 51.1v-66.1l-88.5-51z"/>
    <path class="c" d="M463.6 1186.1l145.4-83.9 87.8 50.7-145.3 84zm114.8 82.5l55.6-32.1 33.7 19.4L612 1288z"/>
    <path class="e" d="M551.5 1434.3l19.9-11.5v-67.2c0-13.3 11.8-30.9 26.4-39.4s26.4-4.4 26.4 8.9v67.2l72.7-42v-197.5l-145.3 83.9v197.6zm85.7-200.9c0-9.6 6.8-21.4 15.2-26.3s15.2-1 15.2 8.7v40.1l-30.4 17.6v-40.1z"/>
  </g>
  <g class="b">
    <path class="c" d="M1137.8 1313.1l-47.8-27.6 47.7-27.6 47.8 27.6z"/>
  </g>
  <g class="b">
    <path class="c" d="M98.2 1352l47.8-27.6-47.7-27.5-47.8 27.6z"/>
  </g>
  <g class="b">
    <path class="e" d="M146 1335.6l-47.8 27.6V1352l47.8-27.5z"/>
  </g>
  <g class="b">
    <path class="c" d="M155.6 1341l-47.8 27.6-9.6-5.5 47.8-27.6z"/>
  </g>
  <g class="b">
    <path class="d" d="M107.8 1379.7l-9.6-5.5v-11.1l9.6 5.5z"/>
  </g>
  <g class="b">
    <path class="e" d="M155.6 1352.1l-47.8 27.6v-11.1l47.8-27.6z"/>
  </g>
  <g class="b">
    <path class="c" d="M165.3 1357.7l-47.8 27.6-9.7-5.6 47.8-27.6z"/>
  </g>
  <g class="b">
    <path class="d" d="M117.5 1396.4l-9.7-5.6v-11.1l9.7 5.6z"/>
  </g>
  <g class="b">
    <path class="e" d="M165.3 1368.8l-47.8 27.6v-11.1l47.8-27.6z"/>
  </g>
  <g class="b">
    <path class="c" d="M174.9 1374.3l-47.8 27.6-9.6-5.6 47.8-27.6z"/>
  </g>
  <g class="b">
    <path class="d" d="M127.1 1413l-9.6-5.6v-11.1l9.6 5.6z"/>
  </g>
  <g class="b">
    <path class="e" d="M174.9 1385.4l-47.8 27.6v-11.1l47.8-27.6z"/>
  </g>
  <g class="b">
    <path class="c" d="M144.6 1445.4l47.8 27.6 9.7-5.6-47.8-27.6z"/>
    <path class="e" d="M192.4 1484.1l9.7-5.6v-11.1l-9.7 5.6z"/>
    <path class="d" d="M144.6 1456.5l47.8 27.6V1473l-47.8-27.6z"/>
    <path class="c" d="M135 1462l47.8 27.6 9.6-5.5-47.8-27.6z"/>
    <path class="e" d="M182.8 1500.7l9.6-5.5v-11.1l-9.6 5.5z"/>
    <path class="d" d="M135 1473.2l47.8 27.5v-11.1L135 1462z"/>
    <path class="c" d="M125.4 1478.6l47.8 27.6 9.6-5.6-47.8-27.5z"/>
    <path class="e" d="M173.2 1517.3l9.6-5.5v-11.2l-9.6 5.6z"/>
    <path class="d" d="M125.4 1489.7l47.8 27.6v-11.1l-47.8-27.6z"/>
  </g>
  <g class="b">
    <path class="e" d="M1134.1 1260.2v-96.6l-34.7-11.8-6 12.8v117.5l9.6-4.1z"/>
    <path class="e" d="M1144.1 1099.4v140.1l-6.3 3.6v-96.4c-.2-9-8-11.7-17.6-6.2s-17.4 17.3-17.6 26.5v118.5l-6.3 3.6V1127z"/>
    <path class="d" d="M1090 1123.3v162.2l6.3 3.6v-118.4c.2-8.9 8-11.7 17.6-6.2s17.4 17.3 17.6 26.5v118.4l6.3 3.6v-162.1z"/>
    <path class="l" d="M1137.7 1150.9l47.9-27.6-11.8-23.7h-71.7l-12.1 23.8z"/>
    <path class="m" d="M1173.8 1099.6l-11.9-10.8h-47.8l-12 10.8 35.8 20.7z"/>
    <path class="n" d="M1161.9 1088.8L1138 1075l-23.9 13.8 23.8 13.8z"/>
    <path class="e" d="M1185.6 1123.3v162.2l-47.8 27.6v-162.2z"/>
    <path class="d" d="M1155 1173.2a16.7 16.7 0 0 1 7.6-13.1c4.2-2.4 7.6-.5 7.6 4.3v20l-15.2 8.8v-20zm0 57.9a16.7 16.7 0 0 1 7.6-13.1c4.2-2.4 7.6-.5 7.6 4.3v20l-15.2 8.8v-20z"/>
    <path class="c" d="M1155.1 1193.2v-17.6l15.2 8.8zm0 57.9v-17.5l15.2 8.7z"/>
  </g>
  <g class="b">
    <path class="d" d="M101.9 1299.1v-96.6l34.7-11.7 6 12.8v117.5l-9.6-4.1z"/>
    <path class="d" d="M91.9 1138.4v140.1l6.3 3.6v-96.4c.2-9 8-11.7 17.6-6.2s17.4 17.3 17.6 26.5v118.5l6.3 3.6V1166l-47.8-27.6z"/>
    <path class="e" d="M146.1 1162.3v162.2l-6.3 3.6v-118.4c-.2-8.9-8-11.7-17.6-6.2s-17.4 17.3-17.6 26.5v118.4l-6.3 3.6v-162.1l47.8-27.6z"/>
    <path class="l" d="M98.3 1189.9l-47.8-27.6 11.7-23.8h71.7l12.1 23.8z"/>
    <path class="m" d="M62.2 1138.5l12-10.8H122l11.9 10.8-35.8 20.6z"/>
    <path class="n" d="M74.2 1127.7L98 1114l24 13.8-23.9 13.8z"/>
    <path class="d" d="M50.5 1162.3v173.3l47.7 27.6v-173.3z"/>
  </g>
  <g class="b">
    <path class="c" d="M938.8 1325.5l110.3-63.6-43-24.9-110.3 63.7z"/>
  </g>
  <g class="b">
    <path class="c" d="M998.1 1275.4l102.5 59.2 37.2-21.5-102.4-59.2z"/>
  </g>
  <g class="b">
    <path class="e" d="M1185.5 1285.5l-84.9 49.1v21.3l84.9-49.1zm-173.6-2.2l-90.7 52.4v21.4l90.7-52.4z"/>
  </g>
  <g class="b">
    <path class="d" d="M1100.6 1334.6l-88.7-51.3v21.4l88.7 51.2zm-203-12.5l-247.1-142.5v21.4l247.1 142.4z"/>
  </g>
  <g class="b">
    <path class="c" d="M650.5 1179.6l270.7 156.1 46.3-26.7-270.8-156.1z"/>
  </g>
  <g class="b">
    <path class="d" d="M888.6 1270.5l-5.7-10.1-28.5-16.8-1.2-27.4 31.3-5.8 7.9 12.3v38.4z"/>
    <path class="d" d="M842.2 1159.3v84.3l6.1 3.5v-41.9c.1-8.7 7.7-11.4 17.1-6s16.9 16.8 17.1 25.7v41.9l6.1 3.5V1186l-46.4-26.7z"/>
    <path class="e" d="M894.7 1182.6v84.3l-6.1 3.5v-41.9c-.1-8.7-7.7-11.4-17.1-6s-16.9 16.8-17.1 25.7v41.9l-6.1 3.5v-84.3l46.4-26.7z"/>
    <path class="l" d="M848.3 1209.4l-46.4-26.8 11.4-23.1h69.6l11.8 23.1z"/>
    <path class="m" d="M813.3 1159.5l11.6-10.5h46.4l11.6 10.5-34.7 20.1z"/>
    <path class="n" d="M824.9 1149l23.2-13.4 23.2 13.5-23.1 13.3z"/>
    <path class="d" d="M801.9 1182.6v85.3l46.4 26.8v-85.3z"/>
  </g>
  <g class="b">
    <path class="d" d="M778.8 1699.8l-27.3-15.8v-281.8l27.3 15.8zm117.5-221l-27.3-15.7v-81.2l27.3 15.8z"/>
    <path class="e" d="M921.2 1335.7L778.7 1418v281.8l25-14.4v-208.3h.1c0-27.9 20.7-62.5 46.3-77.3s46.3-4.1 46.3 23.9l-.1 3.2v52l25-14.4v-128.8z"/>
    <path class="c" d="M921.2 1335.7L778.8 1418l-27.3-15.8 146.1-80.2z"/>
  </g>
  <g class="b">
    <path class="e" d="M998 1710.8l24.7-14.2v-191l-24.7 14.2zM891.6 1588l24.7-14.2v-86.6l-24.7 14.3z"/>
    <path class="d" d="M869 1445.4l129 74.5v191l-22.6-13.1v-124.4h-.1c0-25.3-18.8-56.6-41.9-70s-41.9-3.7-41.9 21.6a28.1 28.1 0 0 0 .1 2.9v60.2L869 1575z"/>
    <path class="c" d="M954.6 1466.2l-33.4-19.5-24.9 14.4 33.5 19.4 68.2 39.3 24.7-14.2z"/>
  </g>
  <g class="b">
    <path class="e" d="M379 1294.2l24.8-14.3v-113.8l-24.7 14.3z"/>
    <path class="d" d="M356.4 1124.2l129 74.5v191l-22.6-13.1v-124.4h-.1c0-25.3-18.8-56.6-41.9-70s-41.9-3.7-41.9 21.6a28.1 28.1 0 0 0 .1 2.9v87.5l-22.6-13.1v-156.9z"/>
    <path class="c" d="M442.1 1145.1l-60.7-35.3-25 14.4 60.9 35.2 68.1 39.3 24.8-14.3z"/>
  </g>
  <g class="b">
    <path class="d" d="M472.9 1402.9l36.9 67 41.7 65.5V1413l-88.6-51.2v35.3z"/>
  </g>
  <g class="b">
    <path class="g" d="M514.5 1242.6v5.5l-33.3-19.3v-5.4zm0 21.7v5.5l-33.3-19.2v-5.5zm0 21.8v5.5l-33.3-19.3v-5.4zm0 21.7v5.5l-33.3-19.2v-5.5zm0 21.8v5.5l-33.3-19.3v-5.4zm0 21.7v5.5l-33.3-19.2v-5.5zm0 21.8v5.5l-33.3-19.3v-5.4z"/>
  </g>
  <g class="b">
    <path class="c" d="M551.5 1406.7L409 1488.9l-27.3-15.8 142.5-82.2z"/>
    <path class="d" d="M409 1728.8l-27.3-15.7v-240l27.3 15.8zm117.5-179l-27.3-15.8v-81.1l27.4 15.8z"/>
    <path class="e" d="M551.5 1406.7L409 1489v239.9l25-14.4v-166.4h.1c0-27.9 20.7-62.5 46.3-77.3s46.3-4.1 46.3 23.9l-.1 3.2v52l25-14.4v-128.8z"/>
  </g>
  <path d="M1588.7 726L1547 859.8h-63.2l-46.5-132.7z" transform="translate(-69.1 -13.5)" style="isolation:isolate" opacity=".7" fill="url(#el)"/>
  <g class="b">
    <path class="l" d="M1446.6 928.5l-63.3-36.5 15.6-31.5h94.8l16 31.5z"/>
  </g>
  <g class="b">
    <path class="m" d="M1398.9 860.5l15.8-14.2h63.2l15.8 14.3-47.4 27.3z"/>
  </g>
  <g class="b">
    <path class="n" d="M1414.7 846.3l31.5-18.3 31.7 18.3-31.6 18.2z"/>
  </g>
  <g class="b">
    <path class="d" d="M547.4 1102.5v120.4l6 3.4v-79c.1-8.4 7.5-11.1 16.6-5.8s16.4 16.4 16.6 25v21.9l6 3.4v-63.2l-45.2-26.1z"/>
    <path class="e" d="M598.5 1125.1v63.2l-6 3.4v-21.9c-.1-8.4-7.5-11.1-16.6-5.8s-16.4 16.4-16.6 25v21.9l-6 3.4v-63.2l45.2-26z"/>
    <path class="e" d="M559.3 1102.5v120.4l-6 3.4v-79c-.1-8.4-7.5-11.1-16.6-5.8s-16.4 16.4-16.6 25v21.9l-6 3.4v-63.2l45.2-26.1z"/>
    <path class="l" d="M553.4 1151.2l-45.1-26.1 11.1-22.4H587l11.5 22.5z"/>
    <path class="m" d="M519.4 1102.7l11.2-10.2h45.2l11.2 10.2-33.8 19.5z"/>
    <path class="n" d="M530.6 1092.5l22.6-13 22.6 13-22.6 13z"/>
    <path class="d" d="M508.2 1125.1v63.2l6 3.4v-21.9c.1-8.4 7.5-11.1 16.6-5.8s16.4 16.4 16.6 25v21.9l6 3.4v-63.2l-45.2-26z"/>
  </g>
  <g class="b">
    <path class="d" d="M117.5 1418.5l131.8 76.2v-11.1l-131.8-76.2z"/>
  </g>
  <g class="b">
    <path class="d" d="M1537.3 1514.9v130.6l6.3 3.6v-87.4c.2-8.9 7.9-11.6 17.4-6.1s17.2 17.2 17.4 26.2v273.5l6.3 3.6v-316.7l-47.4-27.3z"/>
    <path class="e" d="M1590.9 1538.6v316.7l-6.3 3.6v-273.5c-.2-8.9-7.9-11.6-17.4-6.1s-17.2 17.2-17.4 26.2V1879l-6.3 3.6v-316.7l47.4-27.3z"/>
    <path class="e" d="M1549.8 1514.9v130.6l-6.3 3.6v-87.4c-.2-8.9-7.9-11.6-17.4-6.1s-17.2 17.2-17.4 26.2v273.5l-6.3 3.6v-316.7l47.4-27.3z"/>
    <path class="d" d="M1496.3 1538.6v316.7l6.3 3.6v-273.5c.2-8.9 7.9-11.6 17.4-6.1s17.2 17.2 17.4 26.2v274.9l6.3 3.6v-318.2l-47.4-27.2z"/>
  </g>
  <g class="b">
    <path class="c" d="M1543.6 1566.1l-122.3-70.6 47.6-27.5 122.3 70.6z"/>
  </g>
  <g class="b">
    <path class="c" d="M1591.1 1538.6l122.3-70.6-47.6-27.5-122.3 70.6z"/>
  </g>
  <g class="b">
    <path class="e" d="M1543.6 1566.1l209.2-120.8v11.1l-209.2 120.8z"/>
  </g>
  <g class="b">
    <path class="d" d="M1411.7 1501l131.9 76.2v-11.1l-131.9-76.2z"/>
  </g>
  <g class="b">
    <path class="d" d="M60.4 1593.5l-47.8-27.6v-11.1l47.8 27.6z"/>
    <path class="e" d="M182.8 1522.9l-122.4 70.6v-11.1l122.4-70.6z"/>
    <path class="c" d="M117.8 1571.4L70 1599l-9.6-5.6 47.8-27.6z"/>
    <path class="d" d="M70 1610.1l-9.6-5.5v-11.2l9.6 5.6z"/>
    <path class="e" d="M117.8 1582.5L70 1610.1V1599l47.8-27.6z"/>
    <path class="c" d="M127.5 1588.1l-47.8 27.6-9.7-5.6 47.8-27.6z"/>
    <path class="d" d="M79.7 1626.8l-9.7-5.6v-11.1l9.7 5.6z"/>
    <path class="e" d="M127.5 1599.2l-47.8 27.6v-11.1l47.8-27.6z"/>
    <path class="c" d="M137.1 1604.7l-47.8 27.5-9.6-5.5 47.8-27.6z"/>
    <path class="d" d="M89.3 1643.4l-9.6-5.6v-11.1l9.6 5.5z"/>
    <path class="e" d="M137.1 1615.8l-47.8 27.6v-11.2l47.8-27.5z"/>
    <path class="c" d="M146.7 1621.3l-47.8 27.6-9.6-5.5 47.8-27.6z"/>
    <path class="d" d="M98.9 1660l-9.6-5.5v-11.1l9.6 5.5z"/>
    <path class="e" d="M146.7 1632.4L98.9 1660v-11.1l47.8-27.6z"/>
    <path class="c" d="M156.3 1637.9l-47.8 27.6-9.6-5.6 47.8-27.6z"/>
    <path class="d" d="M108.5 1676.6l-9.6-5.5v-11.2l9.6 5.6z"/>
    <path class="e" d="M156.3 1649l-47.8 27.6v-11.1l47.8-27.6z"/>
    <path class="c" d="M166 1654.6l-47.8 27.6-9.7-5.6 47.8-27.6z"/>
    <path class="d" d="M118.2 1693.3l-9.7-5.6v-11.1l9.7 5.6z"/>
    <path class="e" d="M166 1665.7l-47.8 27.6v-11.1l47.8-27.6z"/>
    <path class="c" d="M175.6 1671.2l-47.8 27.6-9.6-5.5 47.8-27.6z"/>
    <path class="d" d="M127.8 1710l-9.6-5.6v-11.1l9.6 5.5z"/>
    <path class="e" d="M175.6 1682.4l-47.8 27.5v-11.1l47.8-27.6z"/>
    <path class="c" d="M185.2 1687.9l-47.8 27.6-9.6-5.6 47.8-27.5z"/>
    <path class="d" d="M137.4 1726.6l-9.6-5.5v-11.2l9.6 5.6z"/>
    <path class="e" d="M185.2 1699l-47.8 27.6v-11.1l47.8-27.6z"/>
    <path class="c" d="M194.8 1704.5l-47.7 27.6-9.7-5.6 47.8-27.6z"/>
    <path class="d" d="M147.1 1743.2l-9.7-5.6v-11.1l9.7 5.6z"/>
    <path class="e" d="M194.8 1715.6l-47.7 27.6v-11.1l47.7-27.6z"/>
  </g>
  <g class="b">
    <path class="d" d="M54.1 1414.9v140l6.3 3.6v-96.3c.2-8.9 8-11.7 17.6-6.2s17.4 17.3 17.6 26.4v72.5l6.3 3.6v-116l-47.8-27.6z"/>
    <path class="e" d="M108.2 1438.8v116.1l-6.3 3.6V1486c-.2-8.9-8-11.7-17.6-6.2s-17.4 17.3-17.6 26.4v72.5l-6.3 3.6v-116.1l47.8-27.4z"/>
    <path class="e" d="M66.8 1414.9v140l-6.3 3.6v-96.3c-.2-8.9-8-11.7-17.6-6.2s-17.4 17.3-17.6 26.4v72.5l-6.3 3.6v-116z"/>
    <path class="l" d="M60.5 1466.4l-47.8-27.6 11.8-23.7h71.6l12.1 23.8z"/>
    <path class="m" d="M24.5 1415.1l11.9-10.8h47.7l12 10.8-35.8 20.7z"/>
    <path class="n" d="M36.4 1404.3l23.8-13.8 23.9 13.8-23.8 13.8z"/>
    <path class="d" d="M12.7 1438.8v116.1l6.3 3.6V1486c.2-8.9 8-11.7 17.6-6.2s17.4 17.3 17.6 26.4v72.5l6.3 3.6v-116.1z"/>
  </g>
  <g class="b">
    <path class="c" d="M1469.6 1523.5l-133.7-77.4 47.8-27.6 133.6 77.4z"/>
    <path class="d" d="M1335.9 1457.2l133.7 77.4v-11.1l-133.7-77.4z"/>
    <path class="c" d="M1326.3 1462.7l47.8 27.6 9.6-5.6-47.8-27.6z"/>
    <path class="e" d="M1374.1 1501.4l9.6-5.6v-11.1l-9.6 5.6z"/>
    <path class="d" d="M1326.3 1473.8l47.8 27.6v-11.1l-47.8-27.6z"/>
    <path class="c" d="M1316.7 1479.3l47.8 27.6 9.6-5.5-47.8-27.6z"/>
    <path class="e" d="M1364.5 1518.1l9.6-5.6v-11.1l-9.6 5.5z"/>
    <path class="d" d="M1316.7 1490.5l47.8 27.6v-11.2l-47.8-27.6z"/>
    <path class="c" d="M1307.1 1495.9l47.8 27.6 9.6-5.5-47.8-27.6z"/>
    <path class="e" d="M1354.9 1534.6l9.6-5.5V1518l-9.6 5.5z"/>
    <path class="d" d="M1307.1 1507l47.8 27.6v-11.1l-47.8-27.6z"/>
    <path class="c" d="M1297.4 1512.6l47.8 27.6 9.7-5.6-47.8-27.6z"/>
    <path class="e" d="M1345.2 1551.3l9.7-5.6v-11.1l-9.7 5.6z"/>
    <path class="d" d="M1297.4 1523.7l47.8 27.6v-11.1l-47.8-27.6z"/>
    <path class="c" d="M1287.8 1529.2l47.8 27.6 9.6-5.6-47.8-27.6z"/>
    <path class="e" d="M1335.6 1567.9l9.6-5.6v-11.1l-9.6 5.6z"/>
    <path class="d" d="M1287.8 1540.3l47.8 27.6v-11.1l-47.8-27.6z"/>
    <path class="c" d="M1278.2 1545.8l47.8 27.6 9.6-5.5-47.8-27.6z"/>
    <path class="e" d="M1326 1584.6l9.6-5.6v-11.1l-9.6 5.5z"/>
    <path class="d" d="M1278.2 1557l47.8 27.5v-11.1l-47.8-27.6z"/>
  </g>
  <g class="b">
    <path class="c" d="M1335.7 1590.1l-47.8 27.6-9.6-5.6 47.8-27.6z"/>
    <path class="d" d="M1287.9 1628.8l-57.4-33.2v-11.1l57.4 33.2z"/>
    <path class="e" d="M1335.7 1601.2l-47.8 27.6v-11.1l47.8-27.6z"/>
    <path class="c" d="M1345.3 1606.8l-47.8 27.5-9.6-5.5 47.8-27.6z"/>
    <path class="d" d="M1297.5 1645.5l-9.6-5.6v-11.1l9.6 5.5z"/>
    <path class="e" d="M1345.3 1617.9l-47.8 27.6v-11.2l47.8-27.5z"/>
    <path class="c" d="M1354.9 1623.4l-47.8 27.6-9.6-5.5 47.8-27.6z"/>
    <path class="d" d="M1307.1 1662.1l-9.6-5.5v-11.1l9.6 5.5z"/>
    <path class="e" d="M1354.9 1634.5l-47.8 27.6V1651l47.8-27.6z"/>
    <path class="c" d="M1364.6 1640.1l-47.8 27.6-9.7-5.6 47.8-27.6z"/>
    <path class="d" d="M1316.8 1678.8l-9.7-5.6v-11.1l9.7 5.6z"/>
    <path class="e" d="M1364.6 1651.2l-47.8 27.6v-11.1l47.8-27.6z"/>
    <path class="c" d="M1374.2 1656.7l-47.8 27.6-9.6-5.6 47.8-27.6z"/>
    <path class="d" d="M1326.4 1695.4l-9.6-5.6v-11.1l9.6 5.6z"/>
    <path class="e" d="M1374.2 1667.8l-47.8 27.6v-11.1l47.8-27.6z"/>
  </g>
  <g class="b">
    <path class="c" d="M1374 1723.2l-47.8-27.6 47.8-27.6 47.8 27.6zm-95.7-111.1l-47.8-27.6 47.7-27.5 47.8 27.6z"/>
  </g>
  <g class="b">
    <path class="d" d="M1377.3 1355.4v114.7l6.3 3.6v-71.1c.2-8.9 7.9-11.7 17.5-6.2s17.4 17.3 17.5 26.4v23.2l6.3 3.6v-66.9l-47.6-27.3z"/>
    <path class="e" d="M1431.4 1379.3v66.9l-6.3 3.6v-23.2c-.2-8.9-7.9-11.7-17.5-6.2s-17.4 17.3-17.5 26.4v10.6l-6.3 3.6v-54.2l47.6-27.5z"/>
    <path class="e" d="M1390 1355.4v114.7l-6.3 3.6v-71.1c-.2-8.9-7.9-11.7-17.5-6.2s-17.4 17.3-17.5 26.4v23.2l-6.3 3.6v-66.9l47.6-27.3z"/>
    <path class="l" d="M1383.7 1406.9l-47.7-27.6 11.7-23.7h71.6l12 23.8z"/>
    <path class="m" d="M1347.7 1355.6l11.9-10.8h47.7l12 10.7-35.8 20.7z"/>
    <path class="n" d="M1359.6 1344.8l23.8-13.7 23.9 13.8-23.8 13.7z"/>
    <path class="d" d="M1335.9 1379.3v66.9l6.3 3.6v-23.2c.2-8.9 7.9-11.7 17.5-6.2s17.4 17.3 17.5 26.4v10.6l6.3 3.6v-54.2l-47.6-27.5z"/>
  </g>
  <g class="b">
    <path class="c" d="M1705.1 1472.8l-47.8-27.6 47.7-27.5 47.8 27.6z"/>
  </g>
  <g class="b">
    <path class="e" d="M1701.4 1420v-96.6l-34.8-11.7-5.9 12.8V1442l9.6-4.1z"/>
    <path class="e" d="M1711.4 1259.3v140.1l-6.3 3.6v-96.4c-.2-8.9-8-11.7-17.6-6.2s-17.4 17.3-17.6 26.5v118.4l-6.3 3.6v-162.1z"/>
    <path class="d" d="M1657.2 1283.2v162.1l6.3 3.6v-118.4c.2-9 8-11.7 17.6-6.2s17.4 17.3 17.6 26.5v118.4l6.3 3.6v-162.1l-47.8-27.5z"/>
    <path class="l" d="M1705 1310.8l47.8-27.6-11.8-23.8h-71.6l-12.1 23.8z"/>
    <path class="m" d="M1741 1259.4l-11.9-10.8h-47.8l-11.9 10.8 35.8 20.7z"/>
    <path class="n" d="M1729.1 1248.6l-23.8-13.7-24 13.8 23.9 13.8z"/>
    <path class="e" d="M1752.8 1283.2v162.1L1705 1473v-162.2z"/>
    <path class="d" d="M1722.3 1333.1a16.7 16.7 0 0 1 7.6-13.1c4.2-2.4 7.6-.5 7.6 4.3v20l-15.2 8.8v-20zm0 57.9a16.7 16.7 0 0 1 7.6-13.1c4.2-2.4 7.6-.5 7.6 4.3v20l-15.2 8.8v-20z"/>
    <path class="c" d="M1722.3 1353v-17.5l15.2 8.8zm0 58v-17.5l15.2 8.7z"/>
  </g>
</svg>
