<?xml version="1.0" encoding="utf-8"?>
<!-- Generator: Adobe Illustrator 22.0.1, SVG Export Plug-In . SVG Version: 6.00 Build 0)  -->
<svg version="1.0" id="Layer_1" xmlns="http://www.w3.org/2000/svg" xmlns:xlink="http://www.w3.org/1999/xlink" x="0px" y="0px"
	 viewBox="0 0 185.2 187.9" enable-background="new 0 0 185.2 187.9" xml:space="preserve">
<g>
	<circle fill="#F4F5F7" cx="92.8" cy="94.7" r="85.1"/>
	<linearGradient id="SVGID_1_" gradientUnits="userSpaceOnUse" x1="161.6154" y1="135.2372" x2="44.9012" y2="67.8522">
		<stop  offset="0" style="stop-color:#08E3F0"/>
		<stop  offset="0.1205" style="stop-color:#18CBE4"/>
		<stop  offset="0.5488" style="stop-color:#4D78BC"/>
		<stop  offset="0.8521" style="stop-color:#6F44A3"/>
		<stop  offset="1" style="stop-color:#7C3099"/>
	</linearGradient>
	<path fill="url(#SVGID_1_)" d="M153.9,114.3V71.7c0-2.1-1.7-3.7-3.7-3.7h-15.4c-2.1,0-3.7,1.7-3.7,3.7v42.6H121V46.6
		c0-2.1-1.7-3.7-3.7-3.7h-15.4c-2.1,0-3.7,1.7-3.7,3.7v67.7H88v-23c0-2.1-1.7-3.7-3.7-3.7H68.9c-2.1,0-3.7,1.7-3.7,3.7v23H30.8
		l52.8-60.8l0.3-0.3c1.3-1.2,1.5-3.1,0.7-4.6c-0.9-1.5-2.6-2.2-4.3-1.7L52,55.5l0,0.2l8.7,5l9.4-3.1l-50.4,58c-1,1.1-1.2,2.7-0.6,4
		c0.6,1.3,1.9,2.2,3.4,2.2h46.2c2.1,0,3.7-1.7,3.7-3.7V95h7.9v23c0,2.1,1.7,3.7,3.7,3.7h17.6c2.1,0,3.7-1.7,3.7-3.7V50.4h7.9V118
		c0,2.1,1.7,3.7,3.7,3.7h17.6c2.1,0,3.7-1.7,3.7-3.7V75.4h7.9V118c0,2.1,1.7,3.7,3.7,3.7h18.2l-3.4-7.4H153.9z"/>
</g>
</svg>
