<?xml version="1.0" encoding="utf-8"?>
<!-- Generator: Adobe Illustrator 22.0.1, SVG Export Plug-In . SVG Version: 6.00 Build 0)  -->
<svg version="1.0" id="Layer_1" xmlns="http://www.w3.org/2000/svg" xmlns:xlink="http://www.w3.org/1999/xlink" x="0px" y="0px"
	 viewBox="0 0 185.2 187.9" enable-background="new 0 0 185.2 187.9" xml:space="preserve">
<g>
	<circle fill="#F4F5F7" cx="92.7" cy="95.5" r="85.1"/>
	<linearGradient id="SVGID_1_" gradientUnits="userSpaceOnUse" x1="137.992" y1="124.197" x2="42.0042" y2="68.7784">
		<stop  offset="0" style="stop-color:#08E3F0"/>
		<stop  offset="0.1205" style="stop-color:#18CBE4"/>
		<stop  offset="0.5488" style="stop-color:#4D78BC"/>
		<stop  offset="0.8521" style="stop-color:#6F44A3"/>
		<stop  offset="1" style="stop-color:#7C3099"/>
	</linearGradient>
	<path fill="url(#SVGID_1_)" d="M116.9,86.8L137.3,67c1.3-1.3,1.7-3.1,1.2-4.8l0,0c-0.6-1.7-2-2.9-3.8-3.2l-26.5-3.8l-11.8-24
		c-0.8-1.6-2.4-2.6-4.2-2.6c-1.8,0-3.4,1-4.2,2.6l-11.8,24L49.7,59c-1.8,0.3-3.2,1.5-3.8,3.2c-0.6,1.7-0.1,3.5,1.2,4.8l19.1,18.7
		L61.8,112c-0.3,1.8,0.4,3.5,1.9,4.6c1.4,1,3.4,1.2,4.9,0.4l23.7-12.4l5.3,2.8l3.2,32.7h11.4c0.9,0,1.7,0.7,1.7,1.7v2.4H72.6
		l-5.3,9.4h51.1c2.6,0,4.7-2.1,4.7-4.7v-7.1c0-6.1-4.9-11-11-11h-2.9l-2.6-26.7c-0.2-1.6-1.1-3-2.5-3.7L94.4,95
		c-1.4-0.7-3-0.7-4.4,0l-17.4,9.2l3.3-19.4c0.3-1.5-0.2-3.1-1.3-4.1L60.5,66.9L80,64c1.5-0.2,2.8-1.2,3.5-2.6l8.7-17.7l8.7,17.7
		c0.7,1.4,2,2.3,3.5,2.6l19.5,2.8l-15.7,15.3L116.9,86.8z"/>
</g>
</svg>
