<?xml version="1.0" encoding="utf-8"?>
<!-- Generator: Adobe Illustrator 22.0.1, SVG Export Plug-In . SVG Version: 6.00 Build 0)  -->
<svg version="1.0" id="Layer_1" xmlns="http://www.w3.org/2000/svg" xmlns:xlink="http://www.w3.org/1999/xlink" x="0px" y="0px"
	 viewBox="0 0 185.2 187.9" enable-background="new 0 0 185.2 187.9" xml:space="preserve">
<g>
	<circle fill="#F4F5F7" cx="92.2" cy="95.8" r="85.1"/>
	<linearGradient id="SVGID_1_" gradientUnits="userSpaceOnUse" x1="115.8602" y1="123.6131" x2="58.1926" y2="65.9456">
		<stop  offset="0" style="stop-color:#08E3F0"/>
		<stop  offset="0.1205" style="stop-color:#18CBE4"/>
		<stop  offset="0.5488" style="stop-color:#4D78BC"/>
		<stop  offset="0.8521" style="stop-color:#6F44A3"/>
		<stop  offset="1" style="stop-color:#7C3099"/>
	</linearGradient>
	<path fill="url(#SVGID_1_)" d="M144.3,68.4c-3.9,0-7,3.1-7,7c0,0.9,0.2,1.9,0.6,2.7L122,100.8c-1.7-0.1-3.4,0.5-4.7,1.6L104,97.7
		c-0.7-3.2-3.5-5.4-6.8-5.4c-3.9,0-7,3.1-7,7c0,0.9,0.2,1.9,0.6,2.7l-12.1,17.5H66.9v0H42.3l52.8-60.8l0.3-0.3
		c1.3-1.2,1.5-3.1,0.7-4.6s-2.6-2.2-4.3-1.7l-28.4,8.6l0,0.2l8.7,5l9.4-3.1l-50.4,58c-1,1.1-1.2,2.7-0.6,4c0.6,1.3,1.9,2.2,3.4,2.2
		h19h13.8h13.6c1.2,0,2.3-0.6,3-1.6l13.2-19c1.7,0.1,3.4-0.5,4.8-1.6l13.4,4.7c0.5,2,1.8,3.7,3.7,4.7c1.7,0.8,3.6,1,5.3,0.4
		c1.8-0.6,3.2-1.8,4-3.5c0.9-1.9,1-4,0.1-5.9L144,82.4c0.1,0,0.2,0,0.4,0c3.9,0,7-3.1,7-7C151.3,71.5,148.2,68.4,144.3,68.4z"/>
</g>
</svg>
