<?xml version="1.0" standalone="no"?><!DOCTYPE svg PUBLIC "-//W3C//DTD SVG 1.1//EN" "http://www.w3.org/Graphics/SVG/1.1/DTD/svg11.dtd"><svg t="1576158645321" class="icon" viewBox="0 0 1159 1024" version="1.1" xmlns="http://www.w3.org/2000/svg" p-id="1184" xmlns:xlink="http://www.w3.org/1999/xlink" width="339.55078125" height="300"><defs><style type="text/css"></style></defs><path d="M775.052 754.746c18.335 5.217 46.853 7.921 66.734 8.81v-135.4H731.213c11.535 59.006 29.832 103.328 43.858 126.59h-0.019z m-47.297-140.848h114.031v-96.295H719.872c0.657 35.454 3.594 68.724 7.883 96.275z m-7.902-110.515h121.914v-96.295H727.774c-4.54 27.552-7.477 60.764-7.921 96.256z m-191.604 6.955c0-173.79 142.973-314.89 316.957-314.89 2.936 0 5.641 0.252 8.597 0.252V0.386l-401.118 62.6v894.763l400.616 62.6 0.483-195.275c-2.956 0-5.66 0.212-8.598 0.212-174.002 0-316.957-141.1-316.957-314.909v-0.02z m172.843 7.284H589.747c1.39 33.425 9.544 67.352 22.412 96.276h96.816a692.997 692.997 0 0 1-7.883-96.276z m29.6-125.913h111.094V256.966c-20.152 0.908-48.611 4.038-67.178 9.255-14.259 23.726-32.324 66.695-43.916 125.488z m-21.93 15.36h-97.048a267.824 267.824 0 0 0-22.141 96.295H700.86c0.657-35.26 3.613-68.705 7.922-96.256v-0.039z m-87.31 221.087c28.479 51.78 74.424 97.435 130.531 118.9-13.331-23.957-29.174-65.768-39.588-118.9h-90.943zM751.307 273.93c-55.644 21.678-101.376 66-130.067 117.779h90.691c10.433-52.707 26.006-93.377 39.376-117.818v0.039z" fill="#17abe3" p-id="1185"></path><path d="M149.079 801.522v-49.5h51.18v49.5h-51.2z m-99.328 0v-49.5h48.205v49.5H49.751z m216.528-77.767h-0.02l29.387-29.386 78.713 78.635-75.544 86.345-29.406-21.678 25.097-36.15h-45.23v-49.5h45.308l-28.305-28.266z m-116.06-222.44v47.472h-49.983v-47.471h49.983zM0 548.826v-47.47h48.437v47.47H0zM244.794 438.04v-0.038l29.174-28.672 116.04 115.982-116.04 115.963-29.174-29.174 66.502-63.276H197.941v-47.47h113.355l-66.502-63.315z m-94.575-186.735v50.408H51.103v-50.427h99.116z m119.885 76.645h0.039l30.797-26.237H200.878v-50.427H300.9l-30.797-25.967 29.174-29.175 80.549 80.471-80.549 80.471-29.174-29.136z m583.68-132.038c169.888 4.54 304.495 143.573 304.495 314.465 0 171.124-134.569 310.175-304.688 315.122l1.546-61.247c19.668-0.696 35.028-3.826 53.402-8.598 14.259-23.3 32.556-67.816 44.322-127.285H857.61V614.11h98.67c4.522-27.551 7.459-60.764 7.903-96.256H857.61v-14.259h106.573a729.61 729.61 0 0 0-7.922-96.313H857.61v-14.22h95.695c-11.766-59.006-29.85-103.328-44.09-127.054a221.57 221.57 0 0 0-53.847-8.83l-1.565-61.246z m242.959 307.452c-1.353-33.425-8.81-67.353-21.717-96.256h-99.792c4.328 27.551 7.284 60.995 7.729 96.256h113.799z m-164.459-230.11c13.332 24.15 29.387 66.463 39.608 119.556h93.628c-29.174-52.436-76.22-98.342-133.236-119.576z m-0.444 474.71c57.209-21.252 104.274-67.371 133.448-119.788h-93.396c-10.433 53.77-26.47 95.83-40.052 119.788z m43.22-134.086h99.31a259.053 259.053 0 0 0 22.604-96.256h-114.03a690.852 690.852 0 0 1-7.883 96.276z" fill="#17abe3" p-id="1186"></path></svg>