<svg xmlns="http://www.w3.org/2000/svg" xmlns:xlink="http://www.w3.org/1999/xlink" viewBox="0 0 207 142.2">
  <defs>
    <style>
      .i{fill:#6673bf}
    </style>
    <linearGradient id="a" x1="103.2" y1="21.8" x2="103.2" y2="140.9" gradientUnits="userSpaceOnUse">
      <stop offset="0" stop-color="#dfe1e5"/>
      <stop offset=".6" stop-color="#f5f5f7"/>
      <stop offset="1" stop-color="#fff"/>
    </linearGradient>
    <linearGradient id="b" x1="103.2" y1="14.4" x2="103.2" y2="133.5" xlink:href="#a"/>
    <linearGradient id="c" x1="64.8" y1="94.9" x2="38.7" y2="121.1" gradientUnits="userSpaceOnUse">
      <stop offset="0" stop-color="#dfe1e5"/>
      <stop offset=".3" stop-color="#e4e5e9"/>
      <stop offset=".7" stop-color="#f2f3f4"/>
      <stop offset="1" stop-color="#fff"/>
    </linearGradient>
    <linearGradient id="d" x1="198.2" y1="65" x2="112.3" y2="150.9" gradientUnits="userSpaceOnUse">
      <stop offset="0" stop-color="#dfe1e5"/>
      <stop offset=".4" stop-color="#e7e9ec"/>
      <stop offset="1" stop-color="#fdfefe"/>
      <stop offset="1" stop-color="#fff"/>
    </linearGradient>
    <linearGradient id="e" x1="-6289.6" y1="229.8" x2="-6289.6" y2="150" gradientTransform="matrix(-1 0 0 1 -5882 0)" gradientUnits="userSpaceOnUse">
      <stop offset="0" stop-color="#5c2277"/>
      <stop offset=".1" stop-color="#5e237a"/>
      <stop offset=".6" stop-color="#742d91"/>
      <stop offset="1" stop-color="#7c3099"/>
    </linearGradient>
    <linearGradient id="f" x1="-6265.3" y1="201.9" x2="-6265.3" y2="149.9" gradientTransform="matrix(-1 0 0 1 -5882 0)" gradientUnits="userSpaceOnUse">
      <stop offset="0" stop-color="#4a4194"/>
      <stop offset=".3" stop-color="#4c4598"/>
      <stop offset=".7" stop-color="#5151a2"/>
      <stop offset="1" stop-color="#5963b2"/>
    </linearGradient>
    <linearGradient id="g" x1="-6321.7" y1="216.5" x2="-6257.3" y2="152.1" gradientTransform="matrix(-1 0 0 1 -5882 0)" gradientUnits="userSpaceOnUse">
      <stop offset="0" stop-color="#08e3f0"/>
      <stop offset=".3" stop-color="#12d3e6"/>
      <stop offset="1" stop-color="#21bad6"/>
    </linearGradient>
    <linearGradient id="h" x1="-6220.3" y1="170.3" x2="-6310.3" y2="170.3" gradientTransform="matrix(-1 0 0 1 -5882 0)" gradientUnits="userSpaceOnUse">
      <stop offset="0" stop-color="#4a4194"/>
      <stop offset="1" stop-color="#5963b2"/>
    </linearGradient>
    <linearGradient id="i" x1="-6274.4" y1="212.2" x2="-6229.1" y2="212.2" gradientTransform="matrix(-1 0 0 1 -6190.4 -119.3)" xlink:href="#e"/>
    <linearGradient id="j" x1="133.7" y1="10.7" x2="133.3" y2="-.6" xlink:href="#g"/>
    <linearGradient id="k" x1="133.5" y1="37.9" x2="124.1" y2="37.9" gradientUnits="userSpaceOnUse">
      <stop offset="0" stop-color="#5c2277"/>
      <stop offset="1" stop-color="#7c3099"/>
    </linearGradient>
    <linearGradient id="l" x1="153.4" y1="46.7" x2="123" y2="29.1" xlink:href="#h"/>
    <linearGradient id="m" x1="106.4" y1="25.7" x2="106" y2="14.4" xlink:href="#g"/>
    <linearGradient id="n" x1="106.2" y1="45.4" x2="96.8" y2="45.4" xlink:href="#k"/>
    <linearGradient id="o" x1="122.9" y1="52.3" x2="98.9" y2="38.5" xlink:href="#h"/>
    <linearGradient id="p" x1="79.1" y1="38.3" x2="78.7" y2="27" xlink:href="#g"/>
    <linearGradient id="q" x1="78.9" y1="51.7" x2="69.5" y2="51.7" xlink:href="#k"/>
    <linearGradient id="r" x1="92.9" y1="57" x2="74.3" y2="46.3" xlink:href="#h"/>
  </defs>
  <path fill="url(#a)" d="M103.5 140.9L0 81.1l102.8-59.3 103.5 59.7-102.8 59.4z"/>
  <path fill="url(#b)" d="M103.5 133.5L0 73.8l102.8-59.4 103.5 59.8-102.8 59.3z"/>
  <path fill="url(#c)" d="M103.5 142.1L0 82.4v-8.6l103.5 59.7v8.6z"/>
  <path fill="url(#d)" d="M207 82.4l-103.5 59.8v-8.7L207 73.8v8.6z"/>
  <path d="M339.9 193.4l73.8-42.6c2-1.2 5.7-1 8 .3l49.6 28.6 5.3-.7v5.3a2.4 2.4 0 0 1-1.4 2.1L401.6 229c-2.1 1.2-5.7 1-8.1-.4l-53-30.6c-2.4-1.3-2.6-3.4-.6-4.6z" transform="translate(-308.4 -119.3)" fill="url(#e)"/>
  <path d="M338.4 195.5v-5.6l3.4 2.5 72-41.6a8.1 8.1 0 0 1 7.4 0l7.3 4.2-81.2 46.9-7.3-4.2a2.7 2.7 0 0 1-1.5-2.2z" transform="translate(-308.4 -119.3)" fill="url(#f)"/>
  <path d="M401.5 223.4l73.7-42.6c2.1-1.2 1.9-3.3-.5-4.7l-53-30.6c-2.4-1.3-6-1.5-8.1-.3l-73.8 42.6c-2 1.2-1.8 3.3.6 4.6l53 30.6c2.4 1.4 6 1.6 8.1.4z" transform="translate(-308.4 -119.3)" fill="url(#g)"/>
  <path d="M339.8 187.8l73.8-42.6a8.3 8.3 0 0 1 7.5 0l7.2 4.2-81.2 46.9-7.3-4.2c-2-1.2-2-3.1 0-4.3z" transform="translate(-308.4 -119.3)" fill="url(#h)"/>
  <ellipse class="i" cx="365.1" cy="179.9" rx="3.3" ry="1.9" transform="rotate(-.3 -22557.3 59032.3)"/>
  <ellipse class="i" cx="351.2" cy="188" rx="3.3" ry="1.9" transform="rotate(-.3 -22576.4 59032.2)"/>
  <ellipse class="i" cx="358.1" cy="184" rx="3.3" ry="1.9" transform="rotate(-.3 -22557.3 59032.3)"/>
  <path fill="url(#i)" d="M38.7 77l.1 5.6L84 108.7v-5.5L38.7 77z"/>
  <path fill="url(#j)" d="M133.5 10.8l-9.4-5.4 9.3-5.4 9.5 5.4-9.4 5.4z"/>
  <path fill="url(#k)" d="M133.5 70.4l-9.4-5.4V5.4l9.4 5.4v59.6z"/>
  <path fill="url(#l)" d="M142.9 65l-9.4 5.4V10.8l9.4-5.4V65z"/>
  <path fill="url(#m)" d="M106.2 25.9l-9.4-5.5 9.3-5.4 9.5 5.5-9.4 5.4z"/>
  <path fill="url(#n)" d="M106.2 70.4L96.8 65V20.4l9.4 5.5v44.5z"/>
  <path fill="url(#o)" d="M115.6 65l-9.4 5.4V25.9l9.4-5.5V65z"/>
  <path fill="url(#p)" d="M78.9 38.4L69.5 33l9.4-5.4 9.4 5.4-9.4 5.4z"/>
  <path fill="url(#q)" d="M78.9 70.4L69.5 65V33l9.4 5.4v32z"/>
  <path fill="url(#r)" d="M88.3 65l-9.4 5.4v-32l9.4-5.4v32z"/>
</svg>
