<svg xmlns="http://www.w3.org/2000/svg" xmlns:xlink="http://www.w3.org/1999/xlink" viewBox="0 0 207 169.9">
  <defs>
    <linearGradient id="a" x1="103.2" y1="49.5" x2="103.2" y2="168.7" gradientUnits="userSpaceOnUse">
      <stop offset="0" stop-color="#dfe1e5"/>
      <stop offset=".6" stop-color="#f5f5f7"/>
      <stop offset="1" stop-color="#fff"/>
    </linearGradient>
    <linearGradient id="f" x1="103.2" y1="42.2" x2="103.2" y2="161.3" xlink:href="#a"/>
    <linearGradient id="g" x1="64.8" y1="122.7" x2="38.7" y2="148.8" gradientUnits="userSpaceOnUse">
      <stop offset="0" stop-color="#dfe1e5"/>
      <stop offset=".3" stop-color="#e4e5e9"/>
      <stop offset=".7" stop-color="#f2f3f4"/>
      <stop offset="1" stop-color="#fff"/>
    </linearGradient>
    <linearGradient id="h" x1="198.2" y1="92.8" x2="112.3" y2="178.7" gradientUnits="userSpaceOnUse">
      <stop offset="0" stop-color="#dfe1e5"/>
      <stop offset=".4" stop-color="#e7e9ec"/>
      <stop offset="1" stop-color="#fdfefe"/>
      <stop offset="1" stop-color="#fff"/>
    </linearGradient>
    <linearGradient id="e" x1="-565.5" y1="1047.1" x2="-479.6" y2="1047.1" gradientTransform="rotate(-17.9 -2843.9 -2312.2)" gradientUnits="userSpaceOnUse">
      <stop offset="0" stop-color="#5c2277"/>
      <stop offset="1" stop-color="#7c3099"/>
    </linearGradient>
    <linearGradient id="b" x1="-130.8" y1="2079.2" x2="-31.7" y2="2079.2" gradientTransform="matrix(.86 .51 -1 .57 2562.4 -974.3)" gradientUnits="userSpaceOnUse">
      <stop offset="0" stop-color="#4a4194"/>
      <stop offset="1" stop-color="#5963b2"/>
    </linearGradient>
    <linearGradient id="c" x1="-44.1" y1="2079.2" x2="-118.4" y2="2079.2" gradientTransform="matrix(.86 .51 -1 .57 2562.4 -974.3)" gradientUnits="userSpaceOnUse">
      <stop offset="0" stop-color="#08e3f0"/>
      <stop offset=".5" stop-color="#12d3e6"/>
      <stop offset="1" stop-color="#21bad6"/>
    </linearGradient>
    <linearGradient id="i" x1="-105.9" y1="2079.2" x2="-56.6" y2="2079.2" xlink:href="#b"/>
    <linearGradient id="j" x1="-69" y1="2079.2" x2="-93.5" y2="2079.2" xlink:href="#c"/>
    <linearGradient id="k" x1="-86.5" y1="2079.2" x2="-76" y2="2079.2" xlink:href="#b"/>
    <linearGradient id="l" x1="-446.7" y1="1093.2" x2="-440.6" y2="1099.3" gradientTransform="rotate(-17.9 -3343.5 -1389.4)" gradientUnits="userSpaceOnUse">
      <stop offset="0" stop-color="#21bad6"/>
      <stop offset=".2" stop-color="#1ac5dd"/>
      <stop offset=".7" stop-color="#0ddbeb"/>
      <stop offset="1" stop-color="#08e3f0"/>
    </linearGradient>
    <linearGradient id="m" x1="-443.7" y1="1088.9" x2="-442.3" y2="1090.3" gradientTransform="rotate(-17.9 -3343.5 -1389.4)" gradientUnits="userSpaceOnUse">
      <stop offset="0" stop-color="#21bad6"/>
      <stop offset=".3" stop-color="#1fbed9"/>
      <stop offset=".6" stop-color="#17cae0"/>
      <stop offset=".9" stop-color="#0bdeed"/>
      <stop offset="1" stop-color="#08e3f0"/>
    </linearGradient>
    <linearGradient id="n" x1="-478.8" y1="1073.6" x2="-477" y2="1070.5" gradientTransform="rotate(-17.9 -2843.9 -2312.2)" xlink:href="#c"/>
    <linearGradient id="d" x1="-514.5" y1="1053.2" x2="-510.3" y2="1057.4" gradientTransform="rotate(-17.9 -3343.5 -1389.4)" gradientUnits="userSpaceOnUse">
      <stop offset="0" stop-color="#21bad6"/>
      <stop offset=".6" stop-color="#12d3e6"/>
      <stop offset="1" stop-color="#08e3f0"/>
    </linearGradient>
    <linearGradient id="o" x1="-514.3" y1="1051.3" x2="-510.5" y2="1049.1" xlink:href="#d"/>
    <linearGradient id="p" x1="-6596.2" y1="-3272.6" x2="-6596.2" y2="-3262.3" gradientTransform="rotate(-168.5 -3831 -2016.6) skewX(29.9)" gradientUnits="userSpaceOnUse">
      <stop offset="0" stop-color="#5c2277"/>
      <stop offset=".5" stop-color="#702b8c"/>
      <stop offset="1" stop-color="#7c3099"/>
    </linearGradient>
    <linearGradient id="q" x1="-6641.9" y1="-3264.3" x2="-6623" y2="-3264.3" gradientTransform="rotate(-168.5 -3990.6 -2054.7) skewX(29.9)" xlink:href="#e"/>
    <linearGradient id="r" x1="-6640.9" y1="-3271.4" x2="-6622.2" y2="-3271.4" gradientTransform="rotate(-168.5 -3990.6 -2054.7) skewX(29.9)" xlink:href="#e"/>
    <linearGradient id="s" x1="-444.9" y1="1092.3" x2="-443.7" y2="1092.3" gradientTransform="translate(914 -908.5)" xlink:href="#d"/>
  </defs>
  <path fill="url(#a)" d="M103.5 168.7L0 108.9l102.8-59.4 103.5 59.8-102.8 59.4z"/>
  <path fill="url(#f)" d="M103.5 161.3L0 101.6l102.8-59.4 103.5 59.7-102.8 59.4z"/>
  <path fill="url(#g)" d="M103.5 169.9L0 110.2v-8.6l103.5 59.7v8.6z"/>
  <path fill="url(#h)" d="M207 110.2l-103.5 59.7v-8.6L207 101.6v8.6z"/>
  <path d="M416.1 112.3l2-1.5-9.7-1.6h-.4c-8.4-1.2-17.8 2.9-26.5 12.8a98.9 98.9 0 0 0-18 85.5c4.1 13.3 11.7 21.1 20.4 22.9h.1l1.7.3 9.1 1.4-1.1-2.1c5.9-1.6 12-5.6 17.7-12.2a99 99 0 0 0 18.1-85.5c-3-9.6-7.7-16.3-13.4-20z" transform="translate(-307.9 -108.9)" fill="url(#e)"/>
  <ellipse cx="405.2" cy="171.2" rx="61.8" ry="34.7" transform="rotate(-78.2 184.5 306.1)" fill="url(#b)"/>
  <ellipse cx="405.2" cy="171.2" rx="46.3" ry="26" transform="rotate(-78.2 184.5 306.1)" fill="url(#c)"/>
  <ellipse cx="405.2" cy="171.2" rx="30.7" ry="17.3" transform="rotate(-78.2 184.5 306.1)" fill="url(#i)"/>
  <ellipse cx="405.2" cy="171.2" rx="15.2" ry="8.5" transform="rotate(-78.2 184.5 306.1)" fill="url(#j)"/>
  <ellipse cx="405.2" cy="171.2" rx="6.5" ry="3.7" transform="rotate(-78.2 184.5 306.1)" fill="url(#k)"/>
  <path fill="url(#l)" d="M175.7 81.8l6.4 6.5-5.2-7.1-1.2.6z"/>
  <path fill="url(#m)" d="M178.8 75.4l-1.5 5.7-.9-.8-.6-.8 3-4.1z"/>
  <path d="M409 173.3l75.5 16.7 1.2 1.1c.3-.5.1-2.2-.8-2.4l-1.2-.3-2.1-1.1-73.4-16.5z" transform="translate(-307.9 -108.9)" fill="url(#n)"/>
  <path fill="url(#d)" d="M102.8 69.9l-.9-5.2-2.9-.3.7 2.2 3.1 3.3z"/>
  <path fill="url(#o)" d="M99.3 58.7l2.1 4.5-3.2.3-1-2.2 2.1-2.6z"/>
  <path d="M407.2 167.6l-4.1 1.2v5.6l7.5 4.4-2.7-4.7L484 191l1.4.2c1 .1.1-2-.6-2.4h-.8l-76.8-17.1z" transform="translate(-307.9 -108.9)" fill="url(#p)"/>
  <path fill="url(#q)" d="M176.1 79.8l2.7-4.4-14.2-3.1-2.6 4.3 14.1 3.2z"/>
  <path fill="url(#r)" d="M182.1 88.3l-6-6.2-14.1-3.2 6 6.3 14.1 3.1z"/>
  <ellipse cx="485.2" cy="190" rx=".6" ry="1.3" transform="rotate(-17.1 -32.5 1159.2)" fill="url(#s)"/>
</svg>
