<?xml version="1.0" standalone="no"?><!DOCTYPE svg PUBLIC "-//W3C//DTD SVG 1.1//EN" "http://www.w3.org/Graphics/SVG/1.1/DTD/svg11.dtd"><svg t="1575977032661" class="icon" viewBox="0 0 1024 1024" version="1.1" xmlns="http://www.w3.org/2000/svg" p-id="11166" data-spm-anchor-id="a313x.7781069.0.i65" xmlns:xlink="http://www.w3.org/1999/xlink" width="200" height="200"><defs><style type="text/css"></style></defs><path d="M375.75168 659.28704V602.8288H972.8v56.45824H375.75168z m389.02272-165.34016h185.14432a22.73792 22.73792 0 0 1 22.88128 22.17984v34.304h-208.0256V493.94688z m-22.8864 0V550.4H377.8304v-34.304a22.73792 22.73792 0 0 1 22.88128-22.17984H741.888z m99.84-80.65536a30.10048 30.10048 0 0 1-39.53152 16.13312l-128.9728-52.4288a30.72 30.72 0 0 1-16.64512-40.32512c6.24128-14.11584 22.88128-18.1504 39.52128-12.09856l74.91072 30.24384c-6.23616-12.09344-16.64-24.19712-27.04384-40.32512A262.07744 262.07744 0 0 0 446.464 219.7248c-76.96384 26.20928-141.45536 84.6848-166.4 157.27616l-6.2464 18.14528-18.72384 4.03456c-87.3728 16.128-151.8592 100.81792-143.54432 181.47328a161.37216 161.37216 0 0 0 160.18432 131.072c24.97024 2.01728 41.60512 16.13312 41.60512 32.256a31.5136 31.5136 0 0 1-31.20128 30.24896C157.31712 778.24 53.30432 681.472 51.2 560.4864c-2.048-102.8352 70.75328-193.56672 174.7712-217.76384 68.64896-159.29344 257.95584-235.91424 422.2976-171.392a324.33152 324.33152 0 0 1 170.58816 159.28832l37.44768-64.512a31.47264 31.47264 0 0 1 41.6-12.09344c16.64512 8.064 18.72384 26.2144 10.40896 40.32512zM581.69856 778.24H398.63296a22.73792 22.73792 0 0 1-22.88128-22.17984l-2.08384-34.2784h208.0256V778.24z m389.05344-22.1696a22.74304 22.74304 0 0 1-22.8864 22.17984h-341.20192v-56.45824H970.752v34.2784z" p-id="11167" data-spm-anchor-id="a313x.7781069.0.i66" class="selected" fill="#1296db"></path></svg>