<?xml version="1.0" standalone="no"?><!DOCTYPE svg PUBLIC "-//W3C//DTD SVG 1.1//EN" "http://www.w3.org/Graphics/SVG/1.1/DTD/svg11.dtd"><svg t="1576158658003" class="icon" viewBox="0 0 1024 1024" version="1.1" xmlns="http://www.w3.org/2000/svg" p-id="1421" xmlns:xlink="http://www.w3.org/1999/xlink" width="300" height="300"><defs><style type="text/css"></style></defs><path d="M375.752 659.287v-56.458H972.8v56.458H375.752z m389.022-165.34H949.92a22.738 22.738 0 0 1 22.881 22.18v34.304H764.774v-56.484z m-22.886 0V550.4H377.83v-34.304a22.738 22.738 0 0 1 22.882-22.18h341.176z m99.84-80.655a30.1 30.1 0 0 1-39.532 16.133l-128.972-52.43a30.72 30.72 0 0 1-16.645-40.324c6.24-14.116 22.88-18.15 39.52-12.099l74.912 30.244c-6.237-12.093-16.64-24.197-27.044-40.325a262.077 262.077 0 0 0-297.503-94.766C369.5 245.935 305.009 304.41 280.064 377l-6.246 18.145-18.724 4.035c-87.373 16.128-151.86 100.818-143.545 181.473a161.372 161.372 0 0 0 160.185 131.072c24.97 2.017 41.605 16.133 41.605 32.256a31.514 31.514 0 0 1-31.201 30.249C157.318 778.24 53.304 681.472 51.2 560.486c-2.048-102.835 70.753-193.566 174.771-217.763 68.65-159.294 257.956-235.915 422.298-171.392a324.332 324.332 0 0 1 170.588 159.288l37.448-64.512a31.473 31.473 0 0 1 41.6-12.094c16.645 8.064 18.723 26.215 10.409 40.326zM581.698 778.24H398.634a22.738 22.738 0 0 1-22.881-22.18l-2.084-34.278h208.025v56.458z m389.054-22.17a22.743 22.743 0 0 1-22.886 22.18H606.664v-56.458h364.088v34.278z" fill="#17abe3" p-id="1422"></path></svg>