<?xml version="1.0" standalone="no"?><!DOCTYPE svg PUBLIC "-//W3C//DTD SVG 1.1//EN" "http://www.w3.org/Graphics/SVG/1.1/DTD/svg11.dtd"><svg t="1575978260609" class="icon" viewBox="0 0 1024 1024" version="1.1" xmlns="http://www.w3.org/2000/svg" p-id="25080" xmlns:xlink="http://www.w3.org/1999/xlink" width="200" height="200"><defs><style type="text/css"></style></defs><path d="M 439.404 768 h -25.6 c -38.4 0 -64 25.6 -64 64 h -224 c -19.2 0 -32 12.8 -32 32 s 12.8 32 32 32 h 416 c -44.8 -32 -76.8 -76.8 -102.4 -128 Z m -25.6 -128 h -261.12 V 192 h 773.12 V 384 c 25.6 19.2 44.8 38.4 64 64 v -256 c 0 -38.4 -25.6 -64 -64 -64 h -773.12 c -38.4 0 -64 25.6 -64 64 V 640 c 0 38.4 25.6 64 64 64 h 267.52 c -6.4 -19.2 -6.4 -44.8 -6.4 -64 Z" p-id="25081" data-spm-anchor-id="a313x.7781069.0.i133" class="selected" fill="#1296db"></path><path d="M 733.804 384 c -140.8 0 -256 115.2 -256 256 s 115.2 256 256 256 s 256 -115.2 256 -256 s -115.2 -256 -256 -256 Z m 192 256 c 0 38.4 -12.8 76.8 -38.4 108.8 l -268.8 -268.8 c 38.4 -19.2 76.8 -32 115.2 -32 c 108.8 0 192 83.2 192 192 Z m -384 0 c 0 -44.8 12.8 -76.8 38.4 -108.8 l 268.8 268.8 c -38.4 19.2 -70.4 32 -115.2 32 c -108.8 0 -192 -83.2 -192 -192 Z" fill="#d81e06" p-id="25082"></path></svg>