<svg xmlns="http://www.w3.org/2000/svg" xmlns:xlink="http://www.w3.org/1999/xlink" viewBox="0 0 211.2 163.9">
  <defs>
    <linearGradient id="a" x1="107.4" y1="43.5" x2="107.4" y2="162.6" gradientUnits="userSpaceOnUse">
      <stop offset="0" stop-color="#dfe1e5"/>
      <stop offset=".6" stop-color="#f5f5f7"/>
      <stop offset="1" stop-color="#fff"/>
    </linearGradient>
    <linearGradient id="f" x1="107.4" y1="36.1" x2="107.4" y2="155.3" xlink:href="#a"/>
    <linearGradient id="b" x1="69" y1="116.6" x2="42.9" y2="142.8" gradientUnits="userSpaceOnUse">
      <stop offset="0" stop-color="#dfe1e5"/>
      <stop offset=".3" stop-color="#e4e5e9"/>
      <stop offset=".7" stop-color="#f2f3f4"/>
      <stop offset="1" stop-color="#fff"/>
    </linearGradient>
    <linearGradient id="g" x1="202.4" y1="86.8" x2="116.5" y2="172.7" gradientUnits="userSpaceOnUse">
      <stop offset="0" stop-color="#dfe1e5"/>
      <stop offset=".4" stop-color="#e7e9ec"/>
      <stop offset="1" stop-color="#fdfefe"/>
      <stop offset="1" stop-color="#fff"/>
    </linearGradient>
    <linearGradient id="h" x1="381.6" y1="182.2" x2="381.6" y2="216.9" xlink:href="#b"/>
    <linearGradient id="d" x1="381.6" y1="217" x2="381.6" y2="182.3" gradientUnits="userSpaceOnUse">
      <stop offset="0" stop-color="#4a4194"/>
      <stop offset="1" stop-color="#5963b2"/>
    </linearGradient>
    <linearGradient id="c" x1="361" y1="204.4" x2="372.7" y2="197.6" gradientUnits="userSpaceOnUse">
      <stop offset="0" stop-color="#5c2277"/>
      <stop offset=".6" stop-color="#722c8e"/>
      <stop offset="1" stop-color="#7c3099"/>
    </linearGradient>
    <linearGradient id="i" x1="390.5" y1="196.7" x2="366" y2="172.2" gradientUnits="userSpaceOnUse">
      <stop offset="0" stop-color="#08e3f0"/>
      <stop offset=".5" stop-color="#16cce2"/>
      <stop offset="1" stop-color="#21bad6"/>
    </linearGradient>
    <linearGradient id="j" x1="441.1" y1="174.8" x2="441.1" y2="224.4" gradientUnits="userSpaceOnUse">
      <stop offset="0" stop-color="#dfe1e5"/>
      <stop offset=".7" stop-color="#f3f4f5"/>
      <stop offset="1" stop-color="#fff"/>
    </linearGradient>
    <linearGradient id="k" x1="404.6" y1="199.8" x2="477.7" y2="199.8" gradientUnits="userSpaceOnUse">
      <stop offset="0" stop-color="#4a4194"/>
      <stop offset=".4" stop-color="#4f4c9d"/>
      <stop offset="1" stop-color="#5963b2"/>
    </linearGradient>
    <linearGradient id="l" x1="116" y1="91.5" x2="116" y2="58.5" xlink:href="#c"/>
    <linearGradient id="e" x1="441.1" y1="209.4" x2="441.1" y2="159.8" gradientUnits="userSpaceOnUse">
      <stop offset="0" stop-color="#08e3f0"/>
      <stop offset="1" stop-color="#21bad6"/>
    </linearGradient>
    <linearGradient id="m" x1="1456.6" y1="-1259.1" x2="1546.7" y2="-1301" gradientTransform="matrix(-.8 -.61 -.61 .8 765.8 2081.8)" xlink:href="#d"/>
    <linearGradient id="n" x1="1472.1" y1="-1293.1" x2="1472.1" y2="-1332.5" gradientTransform="matrix(-.8 -.61 -.61 .8 765.8 2081.8)" gradientUnits="userSpaceOnUse">
      <stop offset="0" stop-color="#4a4194"/>
      <stop offset=".4" stop-color="#4f4c9e"/>
      <stop offset="1" stop-color="#5963b2"/>
    </linearGradient>
    <linearGradient id="o" x1="1508.7" y1="-1313.7" x2="1430.8" y2="-1313.7" gradientTransform="matrix(-.8 -.61 -.61 .8 765.8 2081.8)" xlink:href="#e"/>
  </defs>
  <path fill="url(#a)" d="M107.7 162.6L4.2 102.9 107 43.5l103.5 59.8-102.8 59.3z"/>
  <path fill="url(#f)" d="M107.7 155.3L4.2 95.5 107 36.2l103.5 59.7-102.8 59.4z"/>
  <path fill="url(#b)" d="M107.7 163.9L4.2 104.1v-8.6l103.5 59.8v8.6z"/>
  <path fill="url(#g)" d="M211.2 104.1l-103.5 59.8v-8.6l103.5-59.8v8.6z"/>
  <path d="M372.6 182.2l30.1 17.4-29.9 17.3c-16.3-9.7-16.4-25.1-.2-34.7z" transform="translate(-304 -108.3)" fill="url(#h)"/>
  <path d="M377.2 185l-4.6-2.7a42.1 42.1 0 0 0-4.1 2.8h-8s0 15.1.2 16.6c.9 5.5 4.9 10.9 12.1 15.2l29.9-17.3v-15.1z" transform="translate(-304 -108.3)" fill="url(#d)"/>
  <path d="M365.5 185.1h-5s0 15.1.2 16.6c.9 5.5 4.9 10.9 12.1 15.2v-15.1z" transform="translate(-304 -108.3)" fill="url(#c)"/>
  <path d="M372.6 167.1l30.1 17.4-29.9 17.3c-16.3-9.7-16.4-25.1-.2-34.7z" transform="translate(-304 -108.3)" fill="url(#i)"/>
  <path d="M435.5 199.6l-30.9-17.9c16.7-9.4 43.7-9.3 60.4.4s16.9 25.4.2 35.1-43.6 9.6-60.4.1z" transform="translate(-304 -108.3)" fill="url(#j)"/>
  <path d="M470.3 186a37.8 37.8 0 0 0-5.3-3.7 67.6 67.6 0 0 0-60.4-.3l28 16.2-15.2-1.2-12.6 5.4v15.1a67.2 67.2 0 0 0 60.4-.1c8.4-4.8 12.5-11.2 12.5-17.6v-15.7zm-35.4 14.2v-.6l.5.2z" transform="translate(-304 -108.3)" fill="url(#k)"/>
  <path fill="url(#l)" d="M100.6 58.5v15.2l30.9 17.8V76.3l-30.9-17.8z"/>
  <path d="M435.5 184.6l-30.9-17.8c16.7-9.4 43.7-9.3 60.4.4s16.9 25.4.2 35.1-43.6 9.5-60.4.1z" transform="translate(-304 -108.3)" fill="url(#e)"/>
  <path d="M91.5 30.7L2.8 76.8c-3.8 2-3 4-1.8 6.3l.4.7C2.6 86.2 3.8 88 7.6 86l88.7-46.1c3.8-2 2.9-3.9 1.7-6.3l-.4-.7c-1.2-2.3-2.3-4.2-6.1-2.2z" fill="#5c2277"/>
  <path d="M395.5 139l-88.7 46.1c-3.8 2-3 4-1.8 6.3l96.6-50.2c-1.2-2.3-2.3-4.2-6.1-2.2z" transform="translate(-304 -108.3)" fill="url(#m)"/>
  <path d="M361.6 114.7c1.4-.4 24.7 27.5 24.7 27.5l-5.4 2.5 6.3 12.1 5.3-2.6s9.5 19.2 17.1 31l1.9-.8 1.1-.5c-3.9-12.9-20.7-62-38.8-75.6l-2.4 1.2a72.9 72.9 0 0 0-9.8 5.2z" transform="translate(-304 -108.3)" fill="url(#n)"/>
  <path d="M371.4 109.5c5.7 8.6 29 44.7 40.1 74.9l1.1-.5c-3.9-12.9-20.7-62-38.8-75.6z" transform="translate(-304 -108.3)" fill="url(#o)"/>
</svg>
