<?xml version="1.0" standalone="no"?><!DOCTYPE svg PUBLIC "-//W3C//DTD SVG 1.1//EN" "http://www.w3.org/Graphics/SVG/1.1/DTD/svg11.dtd"><svg t="1576158639809" class="icon" viewBox="0 0 1024 1024" version="1.1" xmlns="http://www.w3.org/2000/svg" p-id="1064" xmlns:xlink="http://www.w3.org/1999/xlink" width="300" height="300"><defs><style type="text/css"></style></defs><path d="M546.304 827.024a344.32 344.32 0 0 1-63.904 6.704c-5.44 0-10.88 0-16.32-0.272-2.288-0.08-4.544-0.224-6.816-0.352a341.744 341.744 0 0 1-124.384-32c3.408-3.2 6.72-6.56 10.176-9.76q7.888-7.312 15.92-14.4a1033.952 1033.952 0 0 1 25.456-21.84c5.28-4.4 10.512-8.816 15.872-13.104 9.504-7.6 19.2-14.944 28.976-22.192 4.656-3.472 9.232-7.056 13.952-10.432a1029.728 1029.728 0 0 1 44.432-30.288 24 24 0 0 0-25.904-40.416q-24.32 15.6-47.744 32.544c-5.232 3.76-10.272 7.792-15.44 11.664-10.272 7.68-20.528 15.36-30.528 23.392-6 4.8-11.776 9.872-17.6 14.816-8.896 7.472-17.776 14.944-26.432 22.688-6.08 5.456-11.968 11.104-17.936 16.688-5.632 5.28-11.44 10.368-16.96 15.776a340.8 340.8 0 0 1-107.584-117.024 1030.992 1030.992 0 0 1 95.68-164.448c5.488 2.832 11.2 5.392 16.672 8.128 6.304 3.104 12.576 6.224 18.944 9.2 9.28 4.352 18.656 8.464 28.064 12.544 6.208 2.688 12.368 5.472 18.624 8 10.336 4.256 20.8 8.208 31.264 12.128 5.408 2.048 10.768 4.224 16.208 6.176q24 8.544 48.192 16a24.192 24.192 0 0 0 6.256 0.928c0.24 0 0.48 0.096 0.736 0.096s0.48-0.096 0.736-0.112a24.352 24.352 0 0 0 6.56-1.056c0.224 0 0.432-0.192 0.672-0.272a24.112 24.112 0 0 0 5.456-2.8c0.352-0.24 0.704-0.432 1.04-0.688a23.712 23.712 0 0 0 4.592-4.624c0.288-0.368 0.512-0.768 0.784-1.152a23.696 23.696 0 0 0-12.8-36.256c-15.184-4.608-30.24-9.6-45.2-14.992-5.024-1.792-9.984-3.776-14.992-5.632a1035.52 1035.52 0 0 1-29.568-11.488c-5.808-2.368-11.552-4.896-17.312-7.376a992.544 992.544 0 0 1-26.64-11.904q-8.784-4.08-17.488-8.352c-3.76-1.84-7.44-3.792-11.2-5.664l1.6-2.112q16.336-20.592 33.792-40.288c2.368-2.688 4.8-5.344 7.2-8a1018.288 1018.288 0 0 1 37.024-39.2l1.392-1.344a1045.216 1045.216 0 0 1 38.512-36.256c2.528-2.272 5.024-4.56 7.584-6.8q19.888-17.52 40.72-34.08l2.864-2.224a1029.248 1029.248 0 0 1 68.592 131.408 24 24 0 1 0 44.048-19.056 1075.2 1075.2 0 0 0-74.288-141.136 1033.168 1033.168 0 0 1 116.272-72.544 342.144 342.144 0 0 1 171.344 204.112 24 24 0 1 0 45.84-14.208 391.856 391.856 0 1 0-374.256 508.128h3.712c1.6 0 3.2-0.192 4.8-0.208q9.376-0.192 18.736-0.832a392 392 0 0 0 45.888-5.136 24.32 24.32 0 0 0 5.296-1.6l0.576-0.112a24 24 0 0 0-9.6-47.024zM154.736 608.96a335.616 335.616 0 0 1-11.968-198.176 1083.952 1083.952 0 0 0 93.696 60.544l-0.336 0.448 0.672 0.368a1076.224 1076.224 0 0 0-82.064 136.816z m250.032-323.952c-2.608 2.288-5.152 4.624-7.728 6.944a1077.568 1077.568 0 0 0-43.552 41.024l-1.216 1.264c-13.856 13.92-27.2 28.272-40.24 42.896-2.176 2.432-4.384 4.8-6.528 7.28q-18.944 21.632-36.64 44.256c-1.104 1.408-2.32 2.72-3.424 4.128a1033.888 1033.888 0 0 1-100.624-65.104 342.24 342.24 0 0 1 227.952-202.24l4.064 4.8q12.336 14.944 24.128 30.304c1.28 1.6 2.624 3.312 3.888 4.992 8.8 11.648 17.296 23.504 25.6 35.44l2.56 3.792c-1.344 1.04-2.592 2.208-3.92 3.2q-22.704 18.048-44.304 37.024z m87.024-69.168l-0.16-0.256-0.256 0.192c-0.88-1.296-1.84-2.56-2.736-3.84-3.872-5.568-7.856-11.072-11.84-16.576-3.2-4.384-6.288-8.784-9.6-13.12-4.192-5.632-8.512-11.2-12.8-16.72-2.576-3.312-5.056-6.704-7.68-10a333.744 333.744 0 0 1 122.32 9.856 1115.888 1115.888 0 0 0-77.232 50.464z" fill="#17abe3" p-id="1065"></path><path d="M910.512 466.624l-172.976-69.52a46.752 46.752 0 0 0-33.6 0l-172.976 69.488a45.504 45.504 0 0 0-28.336 42.56v49.6c0 147.2 69.696 282.432 181.792 353.056l3.024 1.968c2.464 1.6 4.912 3.2 7.488 4.72a50.736 50.736 0 0 0 51.712 0c2.496-1.472 4.928-3.056 7.344-4.64l3.008-1.952c112.208-70.704 181.904-206.016 181.904-353.136v-49.6a45.488 45.488 0 0 0-28.384-42.544z m-189.52-24.672z m169.856 116.8c0 130.784-61.12 250.512-159.584 312.56l-3.696 2.416c-1.728 1.136-3.472 2.288-5.216 3.328a9.44 9.44 0 0 1-1.248 0.512 4.192 4.192 0 0 1-1.984-0.496c-1.824-1.072-3.584-2.24-5.36-3.408l-3.696-2.416c-98.384-61.984-159.488-181.728-159.488-312.496v-48.368l170.144-68.368 170.128 68.368z" fill="#17abe3" p-id="1066"></path><path d="M699.904 560.576v54.688h-54.688a24 24 0 0 0 0 48h54.688v54.672a24 24 0 0 0 48 0v-54.672h54.688a24 24 0 0 0 0-48h-54.688v-54.688a24 24 0 0 0-48 0z" fill="#17abe3" p-id="1067"></path></svg>